<?xml version="1.0" encoding="UTF-8"?>
<svg xmlns="http://www.w3.org/2000/svg" xmlns:xlink="http://www.w3.org/1999/xlink" width="30pt" height="30pt" viewBox="0 0 30 30" version="1.1">
<g id="surface1">
<path style=" stroke:none;fill-rule:nonzero;fill:rgb(0%,59.215686%,61.176471%);fill-opacity:1;" d="M 22.296875 22.078125 C 20.378906 22.078125 18.734375 21.421875 17.300781 20.109375 C 16.410156 19.292969 15.675781 18.292969 15 17.253906 C 14.324219 18.285156 13.589844 19.292969 12.699219 20.109375 C 11.148438 21.53125 9.375 22.167969 7.261719 22.066406 C 3.257812 22.050781 0 18.882812 0 14.996094 C 0 11.09375 3.277344 7.921875 7.3125 7.921875 C 9.421875 7.886719 11.464844 8.6875 12.984375 10.152344 C 13.757812 10.875 14.414062 11.707031 15.007812 12.582031 C 15.605469 11.707031 16.261719 10.871094 17.035156 10.152344 C 18.554688 8.6875 20.59375 7.886719 22.707031 7.921875 C 26.734375 7.921875 30.019531 11.09375 30.019531 14.996094 C 30.019531 18.882812 26.761719 22.050781 22.75 22.066406 C 22.605469 22.074219 22.460938 22.078125 22.316406 22.078125 Z M 16.464844 14.902344 C 17.265625 16.195312 18.039062 17.402344 18.984375 18.269531 C 20.050781 19.246094 21.175781 19.648438 22.628906 19.582031 L 22.695312 19.582031 C 25.34375 19.582031 27.503906 17.519531 27.503906 15.003906 C 27.503906 12.492188 25.347656 10.429688 22.695312 10.429688 C 21.214844 10.398438 19.785156 10.960938 18.722656 11.992188 C 17.867188 12.785156 17.164062 13.804688 16.464844 14.914062 Z M 7.3125 10.417969 C 4.664062 10.417969 2.503906 12.480469 2.503906 14.992188 C 2.503906 17.507812 4.660156 19.570312 7.3125 19.570312 L 7.378906 19.570312 C 8.832031 19.648438 9.957031 19.246094 11.023438 18.257812 C 11.96875 17.390625 12.742188 16.195312 13.542969 14.886719 C 12.84375 13.78125 12.140625 12.761719 11.285156 11.96875 C 10.140625 10.902344 8.878906 10.40625 7.3125 10.40625 Z M 23.027344 14.085938 L 23.027344 12.734375 L 21.617188 12.734375 L 21.617188 14.085938 L 20.265625 14.085938 L 20.265625 15.492188 L 21.617188 15.492188 L 21.617188 16.855469 L 23.027344 16.855469 L 23.027344 15.492188 L 24.382812 15.492188 L 24.382812 14.085938 L 23.027344 14.085938 M 5.277344 14.0625 L 9.726562 14.0625 L 9.726562 15.507812 L 5.277344 15.507812 Z M 5.277344 14.0625 "/>
</g>
</svg>
