<?xml version="1.0" ?><!DOCTYPE svg  PUBLIC '-//W3C//DTD SVG 1.1//EN'  'http://www.w3.org/Graphics/SVG/1.1/DTD/svg11.dtd'><svg enable-background="new 0 0 512 512" height="512px" id="Calque_1" version="1.1" viewBox="0 0 512 512" width="512px" xml:space="preserve" xmlns="http://www.w3.org/2000/svg" xmlns:xlink="http://www.w3.org/1999/xlink"><g><path d="M511.99,460.792c0,28.27-22.929,51.198-51.198,51.198H51.208c-28.279,0-51.198-22.929-51.198-51.198V51.208   C0.01,22.929,22.929,0.01,51.208,0.01h409.584c28.27,0,51.198,22.919,51.198,51.198V460.792z" fill="#9F7DB8"/><path d="M511.99,419.813c0,28.27-22.929,51.198-51.198,51.198H51.208c-28.279,0-51.198-22.929-51.198-51.198V51.208   C0.01,22.929,22.929,0.01,51.208,0.01h409.584c28.27,0,51.198,22.919,51.198,51.198V419.813z" fill="#B597C7"/><g><path d="M242.03,312.407l-9.929-32.378h-57.838l-11.149,32.378h-34.689l55.948-156.863h38.048l55.248,156.863    H242.03z M203.042,190.732h-0.24L182.733,253.1h39.968L203.042,190.732z" fill="#FFFFFF"/><path d="M303.488,262.33c0.94,17.479,10.859,28.809,26.009,28.809c9.93,0,18.659-4.96,20.77-12.989h31.658    c-7.1,23.858-26.249,37.328-51.008,37.328c-38.738,0-58.128-21.259-58.128-63.308c0-35.918,20.539-59.077,56.198-59.077    c35.679,0,54.588,23.159,54.588,69.237H303.488z M351.937,242.95c-0.48-17.249-11.83-25.509-23.85-25.509    c-12.27,0-22.488,9.439-23.658,25.509H351.937z" fill="#FFFFFF"/></g></g><g/><g/><g/><g/><g/><g/></svg>