<?xml version="1.0" encoding="UTF-8"?>
<svg xmlns="http://www.w3.org/2000/svg" xmlns:xlink="http://www.w3.org/1999/xlink" width="30pt" height="30pt" viewBox="0 0 30 30" version="1.1">
<g id="surface1">
<path style=" stroke:none;fill-rule:nonzero;fill:rgb(64.313725%,77.647059%,22.352941%);fill-opacity:1;" d="M 9.796875 0.21875 L 11.148438 2.628906 C 8.640625 3.882812 6.90625 6.28125 6.90625 9.085938 L 23.09375 9.085938 C 23.09375 6.292969 21.359375 3.882812 18.855469 2.628906 L 20.203125 0.21875 C 20.203125 0.21875 20.300781 0.121094 20.109375 0.0273438 C 20.011719 -0.0703125 19.914062 0.121094 19.914062 0.121094 L 18.46875 2.53125 C 17.347656 2.027344 16.132812 1.765625 14.902344 1.761719 C 13.671875 1.765625 12.457031 2.027344 11.335938 2.53125 L 9.890625 0.125 C 9.890625 0.125 9.796875 0.0273438 9.699219 0.0273438 C 9.710938 0.101562 9.742188 0.167969 9.796875 0.222656 Z M 11.15625 4.941406 C 11.53125 4.941406 11.925781 5.316406 11.925781 5.710938 C 11.925781 6.105469 11.550781 6.480469 11.15625 6.480469 C 10.949219 6.484375 10.753906 6.40625 10.609375 6.257812 C 10.460938 6.113281 10.382812 5.917969 10.386719 5.710938 C 10.382812 5.507812 10.460938 5.308594 10.609375 5.164062 C 10.753906 5.019531 10.949219 4.9375 11.15625 4.941406 Z M 18.867188 4.941406 C 19.242188 4.941406 19.636719 5.316406 19.636719 5.710938 C 19.636719 6.105469 19.261719 6.480469 18.867188 6.480469 C 18.660156 6.484375 18.464844 6.40625 18.316406 6.257812 C 18.171875 6.113281 18.09375 5.917969 18.09375 5.710938 C 18.09375 5.507812 18.171875 5.308594 18.316406 5.164062 C 18.464844 5.019531 18.660156 4.9375 18.867188 4.941406 Z M 6.808594 10.050781 L 6.808594 22.386719 C 6.808594 22.964844 7.578125 23.832031 8.15625 23.832031 L 10.085938 23.832031 L 10.085938 28.074219 C 10.085938 29.132812 10.855469 30 11.820312 30 C 12.785156 30 13.554688 29.132812 13.554688 28.074219 L 13.554688 23.832031 L 16.347656 23.832031 L 16.347656 28.070312 C 16.347656 29.132812 17.117188 30 18.082031 30 C 19.046875 30 19.816406 29.132812 19.816406 28.070312 L 19.816406 23.832031 L 21.746094 23.832031 C 22.324219 23.832031 23.09375 23.0625 23.09375 22.386719 L 23.09375 10.050781 Z M 6.808594 10.050781 "/>
<path style=" stroke:none;fill-rule:nonzero;fill:rgb(64.313725%,77.647059%,22.352941%);fill-opacity:1;" d="M 4.109375 9.761719 C 5.074219 9.761719 5.84375 10.628906 5.84375 11.6875 L 5.84375 19.011719 C 5.84375 20.074219 5.074219 20.941406 4.109375 20.941406 C 3.144531 20.941406 2.375 20.074219 2.375 19.011719 L 2.375 11.6875 C 2.375 10.628906 3.144531 9.761719 4.109375 9.761719 Z M 4.109375 9.761719 "/>
<path style=" stroke:none;fill-rule:nonzero;fill:rgb(64.313725%,77.647059%,22.352941%);fill-opacity:1;" d="M 25.890625 9.761719 C 26.855469 9.761719 27.625 10.628906 27.625 11.6875 L 27.625 19.011719 C 27.625 20.074219 26.855469 20.941406 25.890625 20.941406 C 24.925781 20.941406 24.15625 20.074219 24.15625 19.011719 L 24.15625 11.6875 C 24.15625 10.628906 24.925781 9.761719 25.890625 9.761719 Z M 25.890625 9.761719 "/>
</g>
</svg>
