<svg width="135" height="47" viewBox="0 0 135 47" fill="none" xmlns="http://www.w3.org/2000/svg">
<path d="M134 9.32542C134 9.32542 68.6532 -3.66348 48.6647 6.2692C28.6763 16.2019 21.4885 30.4842 4.07514 46M4.07514 46C6.3815 36.8314 7.91908 29.1909 1 23.8425M4.07514 46C17.1445 40.6517 23.2948 42.9438 37.1329 46M48.6647 6.26922C28.6763 16.2019 21.4885 30.4842 4.07514 46" stroke="#16A085"/>
<path d="M134 7.79728C134 7.79728 68.6532 -5.19162 48.6647 4.74107C28.6763 14.6738 21.4885 28.956 4.07514 44.4719M4.07514 44.4719C6.3815 35.3033 7.91908 27.6627 1 22.3143M4.07514 44.4719C17.1445 39.1235 23.2948 41.4157 37.1329 44.4719M48.6647 4.74109C28.6763 14.6738 21.4885 28.9561 4.07514 44.4719" stroke="#16A085" stroke-width="0.3"/>
</svg>
