<?xml version="1.0" encoding="UTF-8"?>
<svg xmlns="http://www.w3.org/2000/svg" xmlns:xlink="http://www.w3.org/1999/xlink" width="15pt" height="15pt" viewBox="0 0 15 15" version="1.1">
<g id="surface1">
<path style=" stroke:none;fill-rule:nonzero;fill:rgb(43.137255%,52.941176%,96.078431%);fill-opacity:1;" d="M 11.96875 0.289062 L 2.832031 0.289062 C 1.429688 0.289062 0.289062 1.429688 0.289062 2.832031 L 0.289062 11.96875 C 0.289062 13.375 1.429688 14.511719 2.832031 14.511719 L 7.402344 14.511719 C 7.402344 14.507812 7.402344 11.480469 7.402344 8.832031 L 5.695312 8.832031 L 5.695312 6.777344 L 7.402344 6.777344 L 7.402344 5.273438 C 7.402344 4.316406 7.847656 2.820312 9.835938 2.820312 L 11.992188 2.820312 L 11.992188 4.832031 C 11.992188 4.832031 10.554688 4.832031 10.351562 4.832031 C 10.128906 4.832031 9.828125 4.9375 9.828125 5.394531 L 9.828125 6.765625 L 12.003906 6.765625 L 11.796875 8.832031 L 9.828125 8.832031 C 9.828125 11.457031 9.828125 14.507812 9.828125 14.511719 L 11.96875 14.511719 C 13.375 14.511719 14.511719 13.375 14.511719 11.96875 L 14.511719 2.832031 C 14.511719 1.429688 13.375 0.289062 11.96875 0.289062 Z M 11.96875 0.289062 "/>
<path style=" stroke:none;fill-rule:nonzero;fill:rgb(0%,0%,0%);fill-opacity:1;" d="M 7.402344 11.433594 C 7.242188 11.433594 7.113281 11.304688 7.113281 11.144531 L 7.113281 11.140625 C 7.113281 10.980469 7.242188 10.851562 7.402344 10.851562 C 7.5625 10.851562 7.691406 10.980469 7.691406 11.140625 C 7.691406 11.144531 7.691406 11.144531 7.691406 11.144531 C 7.691406 11.304688 7.5625 11.433594 7.402344 11.433594 Z M 7.402344 11.433594 "/>
<path style=" stroke:none;fill-rule:nonzero;fill:rgb(0%,0%,0%);fill-opacity:1;" d="M 11.96875 14.800781 L 9.828125 14.800781 C 9.667969 14.800781 9.539062 14.671875 9.539062 14.511719 L 9.539062 8.832031 C 9.539062 8.671875 9.667969 8.542969 9.828125 8.542969 L 11.535156 8.542969 L 11.683594 7.054688 L 9.828125 7.054688 C 9.667969 7.054688 9.539062 6.925781 9.539062 6.765625 L 9.539062 5.394531 C 9.539062 4.765625 9.976562 4.542969 10.351562 4.542969 L 11.703125 4.542969 L 11.703125 3.109375 L 9.835938 3.109375 C 7.902344 3.109375 7.691406 4.625 7.691406 5.273438 L 7.691406 6.777344 C 7.691406 6.9375 7.5625 7.066406 7.402344 7.066406 L 5.984375 7.066406 L 5.984375 8.542969 L 7.402344 8.542969 C 7.5625 8.542969 7.691406 8.671875 7.691406 8.832031 L 7.691406 9.945312 C 7.691406 10.105469 7.5625 10.234375 7.402344 10.234375 C 7.242188 10.234375 7.113281 10.105469 7.113281 9.945312 L 7.113281 9.121094 L 5.695312 9.121094 C 5.535156 9.121094 5.40625 8.992188 5.40625 8.832031 L 5.40625 6.777344 C 5.40625 6.617188 5.535156 6.488281 5.695312 6.488281 L 7.113281 6.488281 L 7.113281 5.273438 C 7.113281 4.890625 7.179688 4.144531 7.640625 3.515625 C 7.96875 3.066406 8.617188 2.53125 9.835938 2.53125 L 11.992188 2.53125 C 12.152344 2.53125 12.28125 2.660156 12.28125 2.820312 L 12.28125 4.832031 C 12.28125 4.992188 12.152344 5.125 11.992188 5.125 L 10.351562 5.125 C 10.179688 5.125 10.117188 5.195312 10.117188 5.394531 L 10.117188 6.476562 L 12.003906 6.476562 C 12.085938 6.476562 12.164062 6.511719 12.21875 6.574219 C 12.273438 6.632812 12.300781 6.714844 12.292969 6.796875 L 12.082031 8.859375 C 12.066406 9.007812 11.945312 9.121094 11.796875 9.121094 L 10.117188 9.121094 L 10.117188 14.222656 L 11.96875 14.222656 C 13.210938 14.222656 14.222656 13.210938 14.222656 11.96875 L 14.222656 2.832031 C 14.222656 1.589844 13.210938 0.578125 11.96875 0.578125 L 2.832031 0.578125 C 1.589844 0.578125 0.578125 1.589844 0.578125 2.832031 L 0.578125 11.96875 C 0.578125 13.210938 1.589844 14.222656 2.832031 14.222656 L 7.113281 14.222656 L 7.113281 12.273438 C 7.113281 12.113281 7.242188 11.984375 7.402344 11.984375 C 7.5625 11.984375 7.691406 12.113281 7.691406 12.273438 L 7.691406 14.511719 C 7.691406 14.671875 7.5625 14.800781 7.402344 14.800781 L 2.832031 14.800781 C 1.269531 14.800781 0 13.53125 0 11.96875 L 0 2.832031 C 0 1.269531 1.269531 0 2.832031 0 L 11.96875 0 C 13.53125 0 14.800781 1.269531 14.800781 2.832031 L 14.800781 11.96875 C 14.800781 13.53125 13.53125 14.800781 11.96875 14.800781 Z M 11.96875 14.800781 "/>
<path style=" stroke:none;fill-rule:nonzero;fill:rgb(0%,0%,0%);fill-opacity:1;" d="M 1.675781 5.957031 C 1.515625 5.957031 1.386719 5.828125 1.386719 5.667969 L 1.386719 3.25 C 1.386719 3.09375 1.515625 2.960938 1.675781 2.960938 C 1.835938 2.960938 1.964844 3.09375 1.964844 3.25 L 1.964844 5.667969 C 1.964844 5.828125 1.835938 5.957031 1.675781 5.957031 Z M 1.675781 5.957031 "/>
<path style=" stroke:none;fill-rule:nonzero;fill:rgb(0%,0%,0%);fill-opacity:1;" d="M 1.675781 7.214844 C 1.515625 7.214844 1.386719 7.082031 1.386719 6.925781 L 1.386719 6.921875 C 1.386719 6.761719 1.515625 6.632812 1.675781 6.632812 C 1.835938 6.632812 1.964844 6.761719 1.964844 6.921875 L 1.964844 6.925781 C 1.964844 7.082031 1.835938 7.214844 1.675781 7.214844 Z M 1.675781 7.214844 "/>
</g>
</svg>
