<?xml version="1.0" encoding="UTF-8"?>
<svg xmlns="http://www.w3.org/2000/svg" xmlns:xlink="http://www.w3.org/1999/xlink" width="30pt" height="30pt" viewBox="0 0 30 30" version="1.1">
<g id="surface1">
<path style=" stroke:none;fill-rule:nonzero;fill:rgb(88.235294%,0%,59.607843%);fill-opacity:1;" d="M 4.082031 22.863281 L 2.980469 22.226562 L 15.25 0.980469 L 16.347656 1.617188 Z M 4.082031 22.863281 "/>
<path style=" stroke:none;fill-rule:nonzero;fill:rgb(88.235294%,0%,59.607843%);fill-opacity:1;" d="M 2.726562 20.53125 L 27.265625 20.53125 L 27.265625 21.800781 L 2.726562 21.800781 Z M 2.726562 20.53125 "/>
<path style=" stroke:none;fill-rule:nonzero;fill:rgb(88.235294%,0%,59.607843%);fill-opacity:1;" d="M 15.488281 28.332031 L 3.214844 21.246094 L 3.847656 20.144531 L 16.121094 27.230469 Z M 26.148438 9.863281 L 13.875 2.777344 L 14.511719 1.675781 L 26.785156 8.761719 Z M 26.148438 9.863281 "/>
<path style=" stroke:none;fill-rule:nonzero;fill:rgb(88.235294%,0%,59.607843%);fill-opacity:1;" d="M 3.851562 9.859375 L 3.214844 8.757812 L 15.5 1.671875 L 16.136719 2.769531 Z M 3.851562 9.859375 "/>
<path style=" stroke:none;fill-rule:nonzero;fill:rgb(88.235294%,0%,59.607843%);fill-opacity:1;" d="M 25.921875 22.863281 L 13.652344 1.613281 L 14.753906 0.976562 L 27.023438 22.226562 Z M 3.699219 7.914062 L 4.972656 7.914062 L 4.972656 22.085938 L 3.699219 22.085938 Z M 25.027344 7.914062 L 26.300781 7.914062 L 26.300781 22.085938 L 25.027344 22.085938 Z M 25.027344 7.914062 "/>
<path style=" stroke:none;fill-rule:nonzero;fill:rgb(88.235294%,0%,59.607843%);fill-opacity:1;" d="M 15.269531 27.792969 L 14.714844 26.832031 L 25.390625 20.667969 L 25.945312 21.628906 Z M 15.269531 27.792969 "/>
<path style=" stroke:none;fill-rule:nonzero;fill:rgb(88.235294%,0%,59.607843%);fill-opacity:1;" d="M 27.984375 22.5 C 27.246094 23.777344 25.613281 24.214844 24.332031 23.480469 C 23.054688 22.742188 22.613281 21.105469 23.351562 19.828125 C 24.089844 18.550781 25.722656 18.109375 27.003906 18.847656 C 28.292969 19.589844 28.726562 21.222656 27.984375 22.5 M 6.640625 10.175781 C 5.902344 11.453125 4.269531 11.890625 2.988281 11.15625 C 1.710938 10.414062 1.273438 8.78125 2.007812 7.5 C 2.746094 6.222656 4.382812 5.785156 5.660156 6.519531 C 6.9375 7.257812 7.378906 8.894531 6.640625 10.171875 M 2.015625 22.5 C 1.28125 21.21875 1.71875 19.585938 2.996094 18.847656 C 4.277344 18.109375 5.910156 18.550781 6.652344 19.828125 C 7.386719 21.105469 6.945312 22.742188 5.667969 23.480469 C 4.382812 24.214844 2.75 23.78125 2.015625 22.5 M 23.359375 10.175781 C 22.625 8.894531 23.0625 7.261719 24.339844 6.519531 C 25.621094 5.785156 27.253906 6.222656 27.992188 7.503906 C 28.730469 8.78125 28.289062 10.417969 27.011719 11.15625 C 25.730469 11.890625 24.097656 11.453125 23.359375 10.175781 M 15 30 C 13.523438 30 12.328125 28.800781 12.328125 27.324219 C 12.328125 25.847656 13.523438 24.652344 15 24.652344 C 16.476562 24.652344 17.675781 25.851562 17.675781 27.328125 C 17.671875 28.800781 16.476562 29.996094 15 30 M 15 5.347656 C 14.289062 5.347656 13.609375 5.066406 13.109375 4.566406 C 12.605469 4.0625 12.324219 3.382812 12.328125 2.675781 C 12.328125 1.199219 13.523438 0 15 0 C 16.476562 0 17.671875 1.199219 17.671875 2.675781 C 17.675781 3.382812 17.394531 4.0625 16.890625 4.566406 C 16.390625 5.066406 15.710938 5.347656 15 5.347656 "/>
</g>
</svg>
