<?xml version="1.0" encoding="UTF-8"?>
<svg xmlns="http://www.w3.org/2000/svg" xmlns:xlink="http://www.w3.org/1999/xlink" width="15pt" height="15pt" viewBox="0 0 15 15" version="1.1">
<g id="surface1">
<path style=" stroke:none;fill-rule:nonzero;fill:rgb(90.196078%,54.901961%,74.509804%);fill-opacity:1;" d="M 10.464844 14.511719 L 4.335938 14.511719 C 2.101562 14.511719 0.289062 12.699219 0.289062 10.464844 L 0.289062 4.335938 C 0.289062 2.101562 2.101562 0.289062 4.335938 0.289062 L 10.464844 0.289062 C 12.699219 0.289062 14.511719 2.101562 14.511719 4.335938 L 14.511719 10.464844 C 14.511719 12.699219 12.699219 14.511719 10.464844 14.511719 Z M 10.464844 14.511719 "/>
<path style=" stroke:none;fill-rule:nonzero;fill:rgb(100%,100%,100%);fill-opacity:1;" d="M 10.464844 13.242188 L 4.335938 13.242188 C 2.804688 13.242188 1.5625 12 1.5625 10.464844 L 1.5625 4.335938 C 1.5625 2.804688 2.804688 1.5625 4.335938 1.5625 L 10.464844 1.5625 C 12 1.5625 13.242188 2.804688 13.242188 4.335938 L 13.242188 10.464844 C 13.242188 12 12 13.242188 10.464844 13.242188 Z M 10.464844 13.242188 "/>
<path style=" stroke:none;fill-rule:nonzero;fill:rgb(100%,35.294118%,35.294118%);fill-opacity:1;" d="M 11.101562 7.402344 C 11.101562 9.445312 9.445312 11.101562 7.402344 11.101562 C 5.355469 11.101562 3.699219 9.445312 3.699219 7.402344 C 3.699219 5.355469 5.355469 3.699219 7.402344 3.699219 C 9.445312 3.699219 11.101562 5.355469 11.101562 7.402344 Z M 11.101562 7.402344 "/>
<path style=" stroke:none;fill-rule:nonzero;fill:rgb(100%,100%,100%);fill-opacity:1;" d="M 9.714844 7.402344 C 9.714844 8.679688 8.679688 9.714844 7.402344 9.714844 C 6.125 9.714844 5.089844 8.679688 5.089844 7.402344 C 5.089844 6.125 6.125 5.089844 7.402344 5.089844 C 8.679688 5.089844 9.714844 6.125 9.714844 7.402344 Z M 9.714844 7.402344 "/>
<path style=" stroke:none;fill-rule:nonzero;fill:rgb(100%,35.294118%,35.294118%);fill-opacity:1;" d="M 12.007812 3.605469 C 12.007812 4.054688 11.644531 4.414062 11.195312 4.414062 C 10.75 4.414062 10.386719 4.054688 10.386719 3.605469 C 10.386719 3.160156 10.75 2.796875 11.195312 2.796875 C 11.644531 2.796875 12.007812 3.160156 12.007812 3.605469 Z M 12.007812 3.605469 "/>
<path style=" stroke:none;fill-rule:nonzero;fill:rgb(0%,0%,0%);fill-opacity:1;" d="M 10.464844 14.800781 L 4.335938 14.800781 C 1.945312 14.800781 0 12.859375 0 10.464844 L 0 4.335938 C 0 1.945312 1.945312 0 4.335938 0 L 10.464844 0 C 12.859375 0 14.800781 1.945312 14.800781 4.335938 L 14.800781 10.464844 C 14.800781 12.859375 12.859375 14.800781 10.464844 14.800781 Z M 4.335938 0.578125 C 2.265625 0.578125 0.578125 2.265625 0.578125 4.335938 L 0.578125 10.464844 C 0.578125 12.539062 2.265625 14.222656 4.335938 14.222656 L 10.464844 14.222656 C 12.539062 14.222656 14.222656 12.539062 14.222656 10.464844 L 14.222656 4.335938 C 14.222656 2.265625 12.539062 0.578125 10.464844 0.578125 Z M 4.335938 0.578125 "/>
<path style=" stroke:none;fill-rule:nonzero;fill:rgb(0%,0%,0%);fill-opacity:1;" d="M 10.464844 13.53125 L 8.722656 13.53125 C 8.5625 13.53125 8.433594 13.402344 8.433594 13.242188 C 8.433594 13.082031 8.5625 12.953125 8.722656 12.953125 L 10.464844 12.953125 C 11.835938 12.953125 12.953125 11.835938 12.953125 10.464844 L 12.953125 4.335938 C 12.953125 2.964844 11.835938 1.851562 10.464844 1.851562 L 4.335938 1.851562 C 2.964844 1.851562 1.851562 2.964844 1.851562 4.335938 L 1.851562 10.464844 C 1.851562 11.835938 2.964844 12.953125 4.335938 12.953125 L 6.101562 12.953125 C 6.257812 12.953125 6.390625 13.082031 6.390625 13.242188 C 6.390625 13.402344 6.257812 13.53125 6.101562 13.53125 L 4.335938 13.53125 C 2.644531 13.53125 1.273438 12.15625 1.273438 10.464844 L 1.273438 4.335938 C 1.273438 2.644531 2.644531 1.273438 4.335938 1.273438 L 10.464844 1.273438 C 12.15625 1.273438 13.53125 2.644531 13.53125 4.335938 L 13.53125 10.464844 C 13.53125 12.15625 12.15625 13.53125 10.464844 13.53125 Z M 10.464844 13.53125 "/>
<path style=" stroke:none;fill-rule:nonzero;fill:rgb(0%,0%,0%);fill-opacity:1;" d="M 7.402344 13.53125 C 7.324219 13.53125 7.25 13.5 7.195312 13.445312 C 7.144531 13.390625 7.113281 13.320312 7.113281 13.242188 C 7.113281 13.164062 7.144531 13.089844 7.195312 13.039062 C 7.25 12.984375 7.324219 12.953125 7.402344 12.953125 C 7.476562 12.953125 7.550781 12.984375 7.605469 13.039062 C 7.660156 13.089844 7.691406 13.164062 7.691406 13.242188 C 7.691406 13.320312 7.660156 13.390625 7.605469 13.445312 C 7.550781 13.5 7.476562 13.53125 7.402344 13.53125 Z M 7.402344 13.53125 "/>
<path style=" stroke:none;fill-rule:nonzero;fill:rgb(0%,0%,0%);fill-opacity:1;" d="M 4.859375 5 C 4.785156 5 4.707031 4.972656 4.652344 4.910156 C 4.539062 4.792969 4.546875 4.609375 4.664062 4.5 L 4.675781 4.488281 C 4.789062 4.378906 4.976562 4.386719 5.085938 4.5 C 5.191406 4.617188 5.1875 4.800781 5.070312 4.910156 L 5.058594 4.921875 C 5.003906 4.976562 4.933594 5 4.859375 5 Z M 4.859375 5 "/>
<path style=" stroke:none;fill-rule:nonzero;fill:rgb(0%,0%,0%);fill-opacity:1;" d="M 7.402344 11.390625 C 5.203125 11.390625 3.410156 9.601562 3.410156 7.402344 C 3.410156 6.710938 3.589844 6.03125 3.929688 5.433594 C 4.007812 5.292969 4.183594 5.246094 4.324219 5.324219 C 4.460938 5.402344 4.511719 5.578125 4.429688 5.71875 C 4.140625 6.230469 3.988281 6.8125 3.988281 7.402344 C 3.988281 9.28125 5.519531 10.8125 7.402344 10.8125 C 9.28125 10.8125 10.8125 9.28125 10.8125 7.402344 C 10.8125 5.519531 9.28125 3.988281 7.402344 3.988281 C 6.851562 3.988281 6.324219 4.117188 5.839844 4.367188 C 5.699219 4.441406 5.523438 4.386719 5.449219 4.246094 C 5.375 4.101562 5.429688 3.929688 5.574219 3.851562 C 6.136719 3.5625 6.765625 3.410156 7.402344 3.410156 C 9.601562 3.410156 11.390625 5.203125 11.390625 7.402344 C 11.390625 9.601562 9.601562 11.390625 7.402344 11.390625 Z M 7.402344 11.390625 "/>
<path style=" stroke:none;fill-rule:nonzero;fill:rgb(0%,0%,0%);fill-opacity:1;" d="M 7.402344 10.003906 C 5.96875 10.003906 4.800781 8.835938 4.800781 7.402344 C 4.800781 5.96875 5.96875 4.800781 7.402344 4.800781 C 8.835938 4.800781 10.003906 5.96875 10.003906 7.402344 C 10.003906 8.835938 8.835938 10.003906 7.402344 10.003906 Z M 7.402344 5.378906 C 6.285156 5.378906 5.378906 6.285156 5.378906 7.402344 C 5.378906 8.515625 6.285156 9.425781 7.402344 9.425781 C 8.515625 9.425781 9.425781 8.515625 9.425781 7.402344 C 9.425781 6.285156 8.515625 5.378906 7.402344 5.378906 Z M 7.402344 5.378906 "/>
<path style=" stroke:none;fill-rule:nonzero;fill:rgb(0%,0%,0%);fill-opacity:1;" d="M 11.195312 4.703125 C 10.589844 4.703125 10.097656 4.210938 10.097656 3.605469 C 10.097656 3 10.589844 2.507812 11.195312 2.507812 C 11.800781 2.507812 12.296875 3 12.296875 3.605469 C 12.296875 4.210938 11.800781 4.703125 11.195312 4.703125 Z M 11.195312 3.085938 C 10.90625 3.085938 10.675781 3.320312 10.675781 3.605469 C 10.675781 3.894531 10.90625 4.125 11.195312 4.125 C 11.484375 4.125 11.71875 3.894531 11.71875 3.605469 C 11.71875 3.320312 11.484375 3.085938 11.195312 3.085938 Z M 11.195312 3.085938 "/>
</g>
</svg>
