<?xml version="1.0" encoding="UTF-8"?>
<svg xmlns="http://www.w3.org/2000/svg" xmlns:xlink="http://www.w3.org/1999/xlink" width="30pt" height="30pt" viewBox="0 0 30 30" version="1.1">
<g id="surface1">
<path style=" stroke:none;fill-rule:nonzero;fill:rgb(30.588235%,47.058824%,58.823529%);fill-opacity:1;" d="M 10.894531 23.195312 C 10.894531 23.195312 9.742188 23.894531 11.695312 24.09375 C 14.050781 24.394531 15.304688 24.347656 17.90625 23.84375 C 18.429688 24.164062 18.984375 24.433594 19.5625 24.648438 C 13.703125 27.152344 6.285156 24.496094 10.894531 23.195312 Z M 10.144531 19.9375 C 10.144531 19.9375 8.894531 20.890625 10.847656 21.089844 C 13.402344 21.339844 15.40625 21.390625 18.863281 20.691406 C 19.199219 21.03125 19.609375 21.289062 20.0625 21.441406 C 13 23.546875 5.085938 21.640625 10.144531 19.9375 Z M 23.972656 25.648438 C 23.972656 25.648438 24.820312 26.347656 23.019531 26.898438 C 19.664062 27.902344 8.945312 28.203125 5.9375 26.898438 C 4.886719 26.449219 6.890625 25.796875 7.53125 25.699219 C 8.183594 25.546875 8.535156 25.546875 8.535156 25.546875 C 7.382812 24.746094 0.871094 27.199219 5.230469 27.902344 C 17.203125 29.855469 27.070312 27.050781 23.964844 25.648438 Z M 11.4375 16.53125 C 11.4375 16.53125 5.976562 17.835938 9.484375 18.285156 C 10.988281 18.484375 13.941406 18.433594 16.695312 18.234375 C 18.949219 18.035156 21.207031 17.632812 21.207031 17.632812 C 21.207031 17.632812 20.40625 17.984375 19.851562 18.335938 C 14.292969 19.789062 3.625 19.136719 6.679688 17.632812 C 9.285156 16.382812 11.4375 16.53125 11.4375 16.53125 Z M 21.207031 21.992188 C 26.816406 19.085938 24.210938 16.28125 22.40625 16.632812 C 21.957031 16.730469 21.757812 16.832031 21.757812 16.832031 C 21.757812 16.832031 21.90625 16.53125 22.257812 16.429688 C 25.8125 15.179688 28.617188 20.1875 21.105469 22.140625 C 21.105469 22.140625 21.152344 22.089844 21.203125 21.992188 Z M 11.992188 29.90625 C 17.398438 30.257812 25.664062 29.703125 25.867188 27.148438 C 25.867188 27.148438 25.464844 28.152344 21.40625 28.902344 C 16.800781 29.753906 11.089844 29.652344 7.734375 29.101562 C 7.734375 29.101562 8.433594 29.703125 11.992188 29.90625 Z M 11.992188 29.90625 "/>
<path style=" stroke:none;fill-rule:nonzero;fill:rgb(96.078431%,50.980392%,9.803922%);fill-opacity:1;" d="M 17.808594 0 C 17.808594 0 20.914062 3.15625 14.855469 7.914062 C 9.996094 11.773438 13.753906 13.976562 14.855469 16.480469 C 12 13.925781 9.945312 11.671875 11.347656 9.570312 C 13.402344 6.460938 19.0625 4.96875 17.808594 0 Z M 16.214844 14.378906 C 17.667969 16.03125 15.816406 17.53125 15.816406 17.53125 C 15.816406 17.53125 19.523438 15.628906 17.816406 13.273438 C 16.265625 11.019531 15.0625 9.917969 21.574219 6.164062 C 21.574219 6.164062 11.304688 8.71875 16.214844 14.378906 Z M 16.214844 14.378906 "/>
</g>
</svg>
