<?xml version="1.0" encoding="UTF-8"?>
<svg xmlns="http://www.w3.org/2000/svg" xmlns:xlink="http://www.w3.org/1999/xlink" width="30pt" height="30pt" viewBox="0 0 30 30" version="1.1">
<g id="surface1">
<path style=" stroke:none;fill-rule:nonzero;fill:rgb(33.333333%,33.333333%,53.333333%);fill-opacity:1;" d="M 0.726562 20.765625 C 0.726562 20.316406 0.789062 19.9375 0.914062 19.628906 C 1.035156 19.335938 1.21875 19.074219 1.460938 18.867188 C 1.695312 18.671875 1.972656 18.53125 2.265625 18.449219 C 2.574219 18.363281 2.902344 18.320312 3.257812 18.320312 C 3.582031 18.316406 3.902344 18.359375 4.210938 18.449219 C 4.515625 18.535156 4.785156 18.675781 5.015625 18.867188 C 5.246094 19.058594 5.429688 19.3125 5.5625 19.628906 C 5.695312 19.9375 5.765625 20.316406 5.765625 20.765625 C 5.765625 21.195312 5.695312 21.566406 5.5625 21.875 C 5.4375 22.164062 5.253906 22.425781 5.015625 22.636719 C 4.785156 22.835938 4.515625 22.980469 4.210938 23.066406 C 3.902344 23.164062 3.582031 23.210938 3.257812 23.210938 C 2.902344 23.210938 2.574219 23.164062 2.265625 23.066406 C 1.96875 22.984375 1.691406 22.839844 1.460938 22.636719 C 1.230469 22.433594 1.046875 22.179688 0.914062 21.875 C 0.789062 21.566406 0.726562 21.199219 0.726562 20.765625 M 8.839844 29.902344 C 8.371094 29.902344 7.90625 29.867188 7.414062 29.800781 C 6.925781 29.734375 6.519531 29.648438 6.191406 29.542969 L 6.191406 26.089844 C 6.492188 26.1875 6.769531 26.253906 7.035156 26.292969 C 7.328125 26.34375 7.621094 26.367188 7.914062 26.363281 C 8.15625 26.363281 8.378906 26.328125 8.589844 26.25 C 8.8125 26.183594 9.011719 26.046875 9.152344 25.859375 C 9.316406 25.679688 9.445312 25.429688 9.539062 25.113281 C 9.636719 24.804688 9.683594 24.40625 9.683594 23.917969 L 9.683594 6.738281 L 14.070312 6.738281 L 14.070312 24.566406 C 14.070312 25.304688 13.976562 25.992188 13.78125 26.628906 C 13.617188 27.253906 13.304688 27.832031 12.875 28.316406 C 12.464844 28.804688 11.925781 29.1875 11.265625 29.464844 C 10.601562 29.746094 9.796875 29.882812 8.847656 29.882812 M 9.503906 2.5625 C 9.503906 2.148438 9.566406 1.808594 9.691406 1.53125 C 9.816406 1.25 9.984375 1.03125 10.195312 0.867188 C 10.414062 0.695312 10.667969 0.574219 10.957031 0.507812 C 11.253906 0.441406 11.566406 0.40625 11.890625 0.40625 C 12.203125 0.40625 12.511719 0.4375 12.8125 0.507812 C 13.085938 0.570312 13.34375 0.691406 13.5625 0.867188 C 13.789062 1.039062 13.964844 1.269531 14.078125 1.53125 C 14.210938 1.800781 14.28125 2.140625 14.28125 2.5625 C 14.28125 2.964844 14.210938 3.304688 14.078125 3.59375 C 13.953125 3.871094 13.78125 4.097656 13.5625 4.265625 C 13.339844 4.4375 13.082031 4.558594 12.8125 4.628906 C 12.511719 4.695312 12.203125 4.730469 11.890625 4.730469 C 11.566406 4.730469 11.253906 4.695312 10.957031 4.628906 C 10.683594 4.558594 10.421875 4.433594 10.195312 4.265625 C 9.984375 4.09375 9.816406 3.867188 9.691406 3.59375 C 9.566406 3.316406 9.503906 2.972656 9.503906 2.5625 M 29.304688 18.046875 C 29.304688 18.890625 29.148438 19.628906 28.835938 20.261719 C 28.535156 20.890625 28.085938 21.433594 27.523438 21.84375 C 26.957031 22.265625 26.273438 22.582031 25.46875 22.792969 C 24.660156 23.003906 23.761719 23.109375 22.761719 23.109375 C 22.234375 23.109375 21.746094 23.09375 21.296875 23.054688 C 20.867188 23.027344 20.4375 22.976562 20.015625 22.898438 C 19.613281 22.820312 19.222656 22.722656 18.847656 22.609375 C 18.460938 22.488281 18.082031 22.34375 17.714844 22.175781 L 17.714844 18.554688 C 18.117188 18.753906 18.539062 18.929688 18.980469 19.101562 L 20.316406 19.53125 L 21.597656 19.804688 C 21.980469 19.867188 22.371094 19.902344 22.761719 19.90625 C 23.15625 19.90625 23.492188 19.871094 23.769531 19.804688 C 24.046875 19.726562 24.273438 19.617188 24.445312 19.503906 C 24.625 19.367188 24.757812 19.214844 24.832031 19.035156 C 24.917969 18.855469 24.960938 18.65625 24.960938 18.457031 C 24.960938 18.257812 24.929688 18.078125 24.863281 17.925781 C 24.804688 17.761719 24.675781 17.59375 24.445312 17.421875 C 24.222656 17.242188 23.898438 17.046875 23.464844 16.820312 L 21.753906 15.976562 L 19.925781 15.039062 C 19.417969 14.722656 18.996094 14.382812 18.660156 13.988281 C 18.332031 13.605469 18.082031 13.160156 17.925781 12.679688 C 17.761719 12.179688 17.683594 11.59375 17.683594 10.910156 C 17.683594 10.160156 17.824219 9.507812 18.113281 8.953125 C 18.398438 8.390625 18.820312 7.90625 19.335938 7.542969 C 19.863281 7.167969 20.496094 6.890625 21.234375 6.699219 C 21.984375 6.507812 22.8125 6.410156 23.722656 6.410156 C 24.683594 6.410156 25.59375 6.523438 26.457031 6.742188 C 27.320312 6.960938 28.207031 7.292969 29.121094 7.734375 L 27.796875 10.84375 C 27.066406 10.5 26.371094 10.214844 25.710938 9.996094 C 25.070312 9.777344 24.402344 9.667969 23.726562 9.664062 C 23.132812 9.664062 22.699219 9.769531 22.429688 9.980469 C 22.171875 10.191406 22.042969 10.480469 22.042969 10.84375 C 22.042969 11.035156 22.078125 11.21875 22.144531 11.363281 C 22.210938 11.507812 22.34375 11.660156 22.546875 11.832031 C 22.75 11.984375 23.03125 12.15625 23.394531 12.347656 L 24.820312 13.023438 L 26.660156 13.914062 C 27.175781 14.179688 27.648438 14.511719 28.070312 14.90625 C 28.460938 15.277344 28.769531 15.722656 28.976562 16.21875 C 29.1875 16.714844 29.296875 17.320312 29.296875 18.03125 "/>
</g>
</svg>
