<?xml version="1.0" encoding="UTF-8"?>
<svg xmlns="http://www.w3.org/2000/svg" xmlns:xlink="http://www.w3.org/1999/xlink" width="15pt" height="15pt" viewBox="0 0 15 15" version="1.1">
<g id="surface1">
<path style=" stroke:none;fill-rule:nonzero;fill:rgb(0%,0%,0%);fill-opacity:1;" d="M 13.503906 8.878906 L 10.667969 6.042969 C 10.335938 5.710938 9.945312 5.457031 9.507812 5.292969 C 9.34375 4.859375 9.089844 4.46875 8.757812 4.136719 L 5.921875 1.300781 C 5.304688 0.683594 4.484375 0.34375 3.613281 0.34375 C 2.738281 0.34375 1.917969 0.683594 1.300781 1.300781 C 0.683594 1.917969 0.34375 2.738281 0.34375 3.613281 C 0.34375 4.484375 0.683594 5.304688 1.300781 5.921875 L 4.136719 8.757812 C 4.46875 9.089844 4.859375 9.34375 5.292969 9.507812 C 5.457031 9.945312 5.710938 10.335938 6.042969 10.667969 L 8.878906 13.503906 C 9.496094 14.121094 10.316406 14.460938 11.191406 14.460938 C 12.0625 14.460938 12.886719 14.121094 13.503906 13.503906 C 14.777344 12.226562 14.777344 10.152344 13.503906 8.878906 Z M 4.449219 8.445312 L 1.613281 5.609375 C 1.082031 5.074219 0.789062 4.367188 0.789062 3.613281 C 0.789062 2.859375 1.082031 2.148438 1.613281 1.613281 C 2.148438 1.082031 2.859375 0.789062 3.613281 0.789062 C 4.367188 0.789062 5.074219 1.082031 5.609375 1.613281 L 8.445312 4.449219 C 8.648438 4.65625 8.820312 4.886719 8.953125 5.140625 C 8.9375 5.136719 8.921875 5.132812 8.90625 5.132812 C 8.894531 5.128906 8.886719 5.128906 8.875 5.125 C 8.835938 5.121094 8.796875 5.117188 8.757812 5.109375 C 8.753906 5.109375 8.75 5.109375 8.746094 5.109375 C 8.710938 5.105469 8.671875 5.101562 8.636719 5.097656 C 8.628906 5.097656 8.617188 5.097656 8.605469 5.097656 C 8.570312 5.09375 8.535156 5.089844 8.5 5.089844 C 8.496094 5.089844 8.492188 5.089844 8.488281 5.089844 C 8.445312 5.085938 8.40625 5.085938 8.363281 5.085938 C 8.359375 5.085938 8.359375 5.085938 8.355469 5.085938 C 8.351562 5.085938 8.34375 5.085938 8.339844 5.085938 C 8.300781 5.085938 8.261719 5.085938 8.222656 5.089844 C 8.214844 5.089844 8.207031 5.089844 8.199219 5.089844 C 8.199219 5.089844 8.191406 5.089844 8.1875 5.089844 C 8.125 5.007812 8.058594 4.929688 7.984375 4.855469 L 5.203125 2.074219 C 4.785156 1.65625 4.230469 1.425781 3.640625 1.425781 C 3.039062 1.425781 2.476562 1.664062 2.054688 2.09375 C 1.214844 2.957031 1.234375 4.363281 2.09375 5.226562 L 4.855469 7.984375 C 4.929688 8.054688 5.003906 8.125 5.089844 8.1875 L 5.085938 8.191406 L 5.199219 8.265625 C 5.21875 8.277344 5.242188 8.292969 5.265625 8.304688 C 5.421875 8.402344 5.585938 8.480469 5.761719 8.53125 C 5.761719 8.53125 5.765625 8.53125 5.765625 8.53125 C 5.785156 8.539062 5.808594 8.546875 5.828125 8.550781 C 5.832031 8.550781 5.839844 8.554688 5.84375 8.554688 C 5.859375 8.558594 5.878906 8.566406 5.898438 8.570312 C 5.90625 8.570312 5.910156 8.574219 5.917969 8.574219 C 5.933594 8.578125 5.953125 8.582031 5.972656 8.585938 C 5.980469 8.589844 5.988281 8.589844 5.996094 8.589844 C 6.011719 8.59375 6.027344 8.597656 6.039062 8.601562 C 6.050781 8.601562 6.0625 8.601562 6.074219 8.605469 C 6.085938 8.605469 6.097656 8.609375 6.109375 8.609375 C 6.125 8.613281 6.140625 8.613281 6.152344 8.617188 C 6.160156 8.617188 6.171875 8.617188 6.179688 8.617188 C 6.199219 8.621094 6.214844 8.625 6.230469 8.625 C 6.238281 8.625 6.246094 8.625 6.253906 8.625 C 6.273438 8.628906 6.292969 8.628906 6.308594 8.628906 C 6.316406 8.628906 6.320312 8.628906 6.328125 8.628906 C 6.347656 8.628906 6.371094 8.632812 6.390625 8.632812 L 6.617188 8.628906 L 6.617188 8.625 C 7.136719 8.578125 7.613281 8.351562 7.984375 7.984375 C 8.351562 7.617188 8.574219 7.144531 8.621094 6.632812 C 8.625 6.632812 8.628906 6.632812 8.636719 6.632812 C 8.652344 6.636719 8.671875 6.640625 8.691406 6.640625 C 8.695312 6.644531 8.703125 6.644531 8.710938 6.648438 C 8.734375 6.652344 8.761719 6.65625 8.785156 6.660156 C 8.785156 6.664062 8.789062 6.664062 8.789062 6.664062 C 8.808594 6.667969 8.832031 6.675781 8.855469 6.679688 C 8.863281 6.683594 8.871094 6.683594 8.878906 6.6875 C 8.894531 6.691406 8.914062 6.699219 8.929688 6.703125 C 8.9375 6.707031 8.941406 6.707031 8.949219 6.710938 C 8.972656 6.71875 8.996094 6.726562 9.015625 6.734375 C 9.019531 6.734375 9.019531 6.734375 9.023438 6.734375 C 9.046875 6.742188 9.070312 6.753906 9.089844 6.761719 C 9.097656 6.765625 9.101562 6.765625 9.109375 6.769531 C 9.125 6.777344 9.144531 6.785156 9.160156 6.796875 C 9.167969 6.796875 9.171875 6.800781 9.179688 6.804688 C 9.199219 6.8125 9.21875 6.824219 9.234375 6.835938 C 9.238281 6.835938 9.242188 6.835938 9.242188 6.839844 C 9.160156 7.445312 8.878906 8.011719 8.445312 8.445312 C 7.976562 8.910156 7.359375 9.199219 6.707031 9.257812 C 6.617188 9.265625 6.53125 9.269531 6.445312 9.269531 C 6.394531 9.269531 6.339844 9.269531 6.285156 9.265625 C 6.03125 9.25 5.78125 9.203125 5.542969 9.121094 C 5.125 8.984375 4.761719 8.753906 4.449219 8.445312 Z M 7.660156 5.160156 C 7.050781 5.292969 6.488281 5.597656 6.042969 6.042969 C 5.597656 6.488281 5.292969 7.050781 5.160156 7.660156 L 2.410156 4.910156 C 1.71875 4.21875 1.703125 3.09375 2.371094 2.40625 C 2.707031 2.058594 3.160156 1.871094 3.640625 1.871094 C 4.109375 1.871094 4.554688 2.054688 4.886719 2.390625 Z M 6.628906 8.175781 C 6.675781 7.78125 6.847656 7.417969 7.132812 7.132812 C 7.417969 6.847656 7.78125 6.675781 8.175781 6.628906 C 8.128906 7.023438 7.953125 7.386719 7.667969 7.667969 C 7.386719 7.953125 7.023438 8.128906 6.628906 8.175781 Z M 9.644531 7.144531 L 12.390625 9.894531 C 13.082031 10.582031 13.101562 11.707031 12.429688 12.394531 C 12.09375 12.742188 11.644531 12.929688 11.164062 12.929688 C 10.691406 12.929688 10.25 12.746094 9.914062 12.414062 L 7.144531 9.644531 C 7.75 9.507812 8.316406 9.203125 8.757812 8.757812 C 9.203125 8.316406 9.507812 7.75 9.644531 7.144531 Z M 13.1875 13.1875 C 12.652344 13.722656 11.945312 14.015625 11.191406 14.015625 C 10.433594 14.015625 9.726562 13.722656 9.195312 13.1875 L 6.359375 10.351562 C 6.152344 10.144531 5.980469 9.914062 5.851562 9.664062 C 5.863281 9.667969 5.878906 9.667969 5.894531 9.667969 C 5.90625 9.667969 5.917969 9.671875 5.925781 9.675781 C 5.964844 9.679688 6.003906 9.6875 6.042969 9.691406 C 6.050781 9.691406 6.054688 9.691406 6.0625 9.691406 C 6.09375 9.699219 6.128906 9.699219 6.160156 9.703125 C 6.171875 9.703125 6.1875 9.703125 6.199219 9.707031 C 6.230469 9.710938 6.261719 9.710938 6.292969 9.710938 C 6.300781 9.710938 6.3125 9.714844 6.316406 9.714844 C 6.359375 9.714844 6.398438 9.714844 6.4375 9.714844 C 6.441406 9.714844 6.445312 9.714844 6.445312 9.714844 C 6.46875 9.714844 6.492188 9.714844 6.515625 9.714844 C 6.515625 9.714844 6.519531 9.714844 6.519531 9.714844 C 6.546875 9.714844 6.578125 9.714844 6.605469 9.710938 C 6.609375 9.710938 6.613281 9.710938 6.613281 9.710938 C 6.675781 9.796875 6.742188 9.875 6.816406 9.949219 L 9.601562 12.730469 C 10.015625 13.148438 10.570312 13.375 11.164062 13.375 C 11.765625 13.375 12.328125 13.140625 12.746094 12.707031 C 13.589844 11.84375 13.570312 10.441406 12.707031 9.578125 L 9.949219 6.820312 C 9.875 6.746094 9.796875 6.679688 9.714844 6.617188 L 9.714844 6.613281 L 9.605469 6.539062 C 9.582031 6.523438 9.558594 6.507812 9.539062 6.496094 C 9.527344 6.488281 9.523438 6.484375 9.515625 6.480469 C 9.5 6.472656 9.484375 6.464844 9.46875 6.453125 C 9.457031 6.449219 9.445312 6.445312 9.433594 6.4375 C 9.421875 6.429688 9.410156 6.425781 9.398438 6.417969 C 9.386719 6.410156 9.371094 6.40625 9.359375 6.398438 C 9.347656 6.394531 9.339844 6.386719 9.332031 6.382812 C 9.316406 6.375 9.300781 6.371094 9.285156 6.363281 C 9.273438 6.359375 9.265625 6.355469 9.257812 6.351562 C 9.242188 6.34375 9.226562 6.335938 9.210938 6.328125 C 9.203125 6.328125 9.195312 6.324219 9.183594 6.320312 C 9.167969 6.3125 9.152344 6.308594 9.136719 6.300781 C 9.128906 6.300781 9.121094 6.296875 9.109375 6.292969 C 9.09375 6.289062 9.082031 6.28125 9.066406 6.277344 C 9.054688 6.277344 9.046875 6.273438 9.039062 6.269531 C 9.023438 6.265625 9.003906 6.257812 8.988281 6.253906 C 8.980469 6.253906 8.972656 6.25 8.960938 6.246094 C 8.945312 6.242188 8.929688 6.238281 8.917969 6.234375 C 8.90625 6.234375 8.894531 6.230469 8.886719 6.226562 C 8.871094 6.222656 8.855469 6.222656 8.84375 6.21875 C 8.832031 6.214844 8.820312 6.214844 8.808594 6.210938 C 8.792969 6.207031 8.78125 6.207031 8.769531 6.203125 C 8.757812 6.203125 8.742188 6.199219 8.730469 6.199219 C 8.71875 6.195312 8.707031 6.195312 8.695312 6.191406 C 8.679688 6.191406 8.664062 6.1875 8.652344 6.1875 C 8.640625 6.183594 8.628906 6.183594 8.617188 6.183594 C 8.605469 6.179688 8.589844 6.179688 8.570312 6.175781 C 8.5625 6.175781 8.554688 6.175781 8.542969 6.175781 C 8.527344 6.175781 8.507812 6.171875 8.492188 6.171875 C 8.484375 6.171875 8.476562 6.171875 8.46875 6.171875 C 8.453125 6.171875 8.433594 6.171875 8.417969 6.171875 L 8.410156 6.171875 C 8.402344 6.171875 8.390625 6.171875 8.382812 6.171875 C 7.792969 6.171875 7.234375 6.402344 6.820312 6.820312 C 6.449219 7.183594 6.226562 7.660156 6.179688 8.171875 C 6.175781 8.167969 6.171875 8.167969 6.164062 8.167969 C 6.152344 8.167969 6.132812 8.164062 6.113281 8.160156 C 6.105469 8.160156 6.097656 8.15625 6.09375 8.15625 C 6.066406 8.152344 6.042969 8.144531 6.015625 8.140625 C 6.015625 8.140625 6.015625 8.140625 6.011719 8.140625 C 5.992188 8.132812 5.96875 8.128906 5.945312 8.121094 C 5.9375 8.121094 5.933594 8.117188 5.921875 8.117188 C 5.90625 8.109375 5.886719 8.105469 5.871094 8.097656 C 5.863281 8.097656 5.859375 8.09375 5.851562 8.09375 C 5.832031 8.085938 5.808594 8.078125 5.789062 8.070312 C 5.785156 8.070312 5.785156 8.066406 5.78125 8.066406 C 5.757812 8.058594 5.734375 8.050781 5.710938 8.039062 C 5.707031 8.035156 5.699219 8.035156 5.691406 8.03125 C 5.675781 8.023438 5.660156 8.015625 5.644531 8.007812 C 5.636719 8.003906 5.628906 8 5.621094 7.996094 C 5.605469 7.988281 5.585938 7.976562 5.566406 7.96875 C 5.566406 7.964844 5.5625 7.964844 5.558594 7.960938 C 5.644531 7.355469 5.921875 6.792969 6.359375 6.359375 C 6.824219 5.890625 7.445312 5.601562 8.097656 5.542969 C 8.183594 5.535156 8.269531 5.53125 8.355469 5.53125 C 8.433594 5.53125 8.507812 5.535156 8.585938 5.542969 C 8.628906 5.542969 8.667969 5.550781 8.710938 5.554688 C 8.898438 5.574219 9.082031 5.617188 9.261719 5.679688 C 9.675781 5.820312 10.042969 6.046875 10.351562 6.359375 L 13.1875 9.195312 C 14.289062 10.292969 14.289062 12.085938 13.1875 13.1875 Z M 13.1875 13.1875 "/>
<path style=" stroke:none;fill-rule:nonzero;fill:rgb(0%,0%,0%);fill-opacity:1;" d="M 10.828125 3.660156 L 12.507812 1.980469 L 12.824219 2.292969 L 11.144531 3.972656 Z M 10.828125 3.660156 "/>
<path style=" stroke:none;fill-rule:nonzero;fill:rgb(0%,0%,0%);fill-opacity:1;" d="M 8.269531 0 L 8.71875 0 L 8.71875 2.371094 L 8.269531 2.371094 Z M 8.269531 0 "/>
<path style=" stroke:none;fill-rule:nonzero;fill:rgb(0%,0%,0%);fill-opacity:1;" d="M 12.429688 6.085938 L 14.800781 6.085938 L 14.800781 6.53125 L 12.429688 6.53125 Z M 12.429688 6.085938 "/>
<path style=" stroke:none;fill-rule:nonzero;fill:rgb(0%,0%,0%);fill-opacity:1;" d="M 1.980469 12.507812 L 3.65625 10.828125 L 3.972656 11.144531 L 2.292969 12.824219 Z M 1.980469 12.507812 "/>
<path style=" stroke:none;fill-rule:nonzero;fill:rgb(0%,0%,0%);fill-opacity:1;" d="M 0 8.269531 L 2.371094 8.269531 L 2.371094 8.71875 L 0 8.71875 Z M 0 8.269531 "/>
<path style=" stroke:none;fill-rule:nonzero;fill:rgb(0%,0%,0%);fill-opacity:1;" d="M 6.085938 12.429688 L 6.53125 12.429688 L 6.53125 14.800781 L 6.085938 14.800781 Z M 6.085938 12.429688 "/>
</g>
</svg>
