<?xml version="1.0" encoding="UTF-8"?>
<svg xmlns="http://www.w3.org/2000/svg" xmlns:xlink="http://www.w3.org/1999/xlink" width="30pt" height="30pt" viewBox="0 0 30 30" version="1.1">
<defs>
<linearGradient id="linear0" gradientUnits="userSpaceOnUse" x1="811.527" y1="574.895" x2="665.255" y2="573.732" gradientTransform="matrix(0.151594,0,0,0.148208,-100.816537,-76.558003)">
<stop offset="0" style="stop-color:rgb(21.176471%,41.568627%,58.823529%);stop-opacity:1;"/>
<stop offset="1" style="stop-color:rgb(21.176471%,47.45098%,69.019608%);stop-opacity:1;"/>
</linearGradient>
<linearGradient id="linear1" gradientUnits="userSpaceOnUse" x1="862.824" y1="642.176" x2="573.276" y2="642.176" gradientTransform="matrix(0.151594,0,0,0.148208,-100.816537,-76.558003)">
<stop offset="0" style="stop-color:rgb(100%,78.431373%,21.176471%);stop-opacity:1;"/>
<stop offset="1" style="stop-color:rgb(100%,90.980392%,45.098039%);stop-opacity:1;"/>
</linearGradient>
</defs>
<g id="surface1">
<path style=" stroke:none;fill-rule:nonzero;fill:url(#linear0);" d="M 7.761719 4.140625 C 7.761719 2.121094 8.316406 1.023438 11.375 0.5 C 13.449219 0.144531 16.113281 0.0976562 18.59375 0.5 C 20.554688 0.816406 22.207031 2.242188 22.207031 4.140625 L 22.207031 10.800781 C 22.207031 12.753906 20.601562 14.355469 18.59375 14.355469 L 11.375 14.355469 C 8.925781 14.355469 6.859375 16.398438 6.859375 18.707031 L 6.859375 21.902344 L 4.375 21.902344 C 2.277344 21.902344 1.054688 20.421875 0.539062 18.351562 C -0.152344 15.566406 -0.121094 13.910156 0.539062 11.246094 C 1.117188 8.921875 2.953125 7.695312 5.054688 7.695312 L 14.984375 7.695312 L 14.984375 6.804688 L 7.761719 6.804688 Z M 7.761719 4.140625 "/>
<path style=" stroke:none;fill-rule:nonzero;fill:url(#linear1);" d="M 22.207031 25.457031 C 22.207031 27.476562 20.414062 28.5 18.59375 29.007812 C 15.859375 29.777344 13.660156 29.660156 11.375 29.007812 C 9.464844 28.464844 7.761719 27.351562 7.761719 25.457031 L 7.761719 18.796875 C 7.761719 16.878906 9.398438 15.242188 11.375 15.242188 L 18.59375 15.242188 C 21 15.242188 23.109375 13.210938 23.109375 10.800781 L 23.109375 7.695312 L 25.816406 7.695312 C 27.917969 7.695312 28.910156 9.222656 29.429688 11.246094 C 30.152344 14.058594 30.183594 16.160156 29.429688 18.351562 C 28.699219 20.480469 27.917969 21.902344 25.816406 21.902344 L 14.984375 21.902344 L 14.984375 22.792969 L 22.207031 22.792969 Z M 22.207031 25.457031 "/>
<path style=" stroke:none;fill-rule:nonzero;fill:rgb(100%,100%,100%);fill-opacity:1;" d="M 9.570312 3.699219 C 9.570312 2.960938 10.171875 2.363281 10.921875 2.363281 C 11.667969 2.363281 12.277344 2.960938 12.277344 3.699219 C 12.277344 4.433594 11.667969 5.027344 10.921875 5.027344 C 10.171875 5.027344 9.570312 4.433594 9.570312 3.699219 Z M 17.691406 25.898438 C 17.691406 25.164062 18.300781 24.566406 19.046875 24.566406 C 19.796875 24.566406 20.398438 25.164062 20.398438 25.898438 C 20.398438 26.636719 19.796875 27.234375 19.046875 27.234375 C 18.300781 27.234375 17.691406 26.636719 17.691406 25.898438 Z M 17.691406 25.898438 "/>
</g>
</svg>
