<svg xmlns="http://www.w3.org/2000/svg" xmlns:xlink="http://www.w3.org/1999/xlink" version="1.1" x="0px" y="0px" scale="0.10" viewBox="0 0 75 100" style="enable-background:new 0 0 100 100;" xml:space="preserve"><style type="text/css">
	.st0{fill:#231F20;}
</style><path class="st0" d="M87.9,23.1C83.2,34,75.6,43.5,66.2,50.6c-9.5,7.2-21.1,12.5-33.1,13.6c-4.9,0.4-9.9,0-14.4-1.8  c4.6-0.9,9.1-1.8,13.7-2.7c1-0.2,1.2-1.6,1.2-2.4c0-0.5-0.2-2.6-1.2-2.4c-6.5,1.3-13.1,2.6-19.6,3.9c-0.1,0-0.3,0.1-0.4,0.2  c-0.2-0.2-0.4-0.4-0.6-0.5c-1.7-1.4-2.4,3.2-1.2,4.2c4.9,4.2,9.2,9,12.6,14.4c0.5,0.8,1.2,0.9,1.7,0c0.5-0.9,0.6-2.5,0-3.4  c-1.2-1.9-2.5-3.6-3.8-5.4c9.1,2.5,19.5,0.3,28-3c11.4-4.4,21.6-11.7,29.5-21c4.5-5.3,8.2-11.2,11-17.5c0.4-1,0.5-2.4,0-3.4  C89.2,22.3,88.3,22.2,87.9,23.1z"/><text x="0" y="115" fill="#000000" font-size="5px" font-weight="bold" font-family="'Helvetica Neue', Helvetica, Arial-Unicode, Arial, Sans-serif">Created by kiddo</text><text x="0" y="120" fill="#000000" font-size="5px" font-weight="bold" font-family="'Helvetica Neue', Helvetica, Arial-Unicode, Arial, Sans-serif">from the Noun Project</text></svg>