<?xml version="1.0" encoding="UTF-8"?>
<svg xmlns="http://www.w3.org/2000/svg" xmlns:xlink="http://www.w3.org/1999/xlink" width="30pt" height="30pt" viewBox="0 0 30 30" version="1.1">
<g id="surface1">
<path style=" stroke:none;fill-rule:evenodd;fill:rgb(0%,84.705882%,100%);fill-opacity:1;" d="M 17.679688 14.976562 C 17.679688 16.453125 16.480469 17.652344 15 17.652344 C 13.519531 17.652344 12.320312 16.453125 12.320312 14.976562 C 12.320312 13.496094 13.519531 12.296875 15 12.296875 C 16.480469 12.296875 17.679688 13.496094 17.679688 14.976562 Z M 17.679688 14.976562 "/>
<path style="fill:none;stroke-width:24;stroke-linecap:butt;stroke-linejoin:miter;stroke:rgb(0%,84.705882%,100%);stroke-opacity:1;stroke-miterlimit:4;" d="M 269.526966 135.608146 C 336.898806 135.608146 399.442697 145.264045 446.62493 161.503511 C 503.463062 181.107912 538.42912 210.733965 538.42912 237.653441 C 538.42912 265.597027 501.414841 297.125 440.333965 317.387757 C 394.175843 332.676264 333.460721 340.649696 269.526966 340.649696 C 203.983895 340.649696 141.878909 333.115169 95.208731 317.168305 C 36.176077 296.978699 0.624813 265.084972 0.624813 237.653441 C 0.624813 210.953418 33.981554 181.546816 90.015028 162.015566 C 137.416713 145.483497 201.49677 135.608146 269.526966 135.608146 Z M 269.526966 135.608146 " transform="matrix(0.0534,0,0,0.0534,0.60726,2.285869)"/>
<path style="fill:none;stroke-width:24;stroke-linecap:butt;stroke-linejoin:miter;stroke:rgb(0%,84.705882%,100%);stroke-opacity:1;stroke-miterlimit:4;" d="M 180.721957 186.886821 C 214.371301 128.585674 254.019007 79.208919 291.691643 46.437383 C 336.971957 7.009129 380.130899 -8.49883 403.465988 4.960908 C 427.678886 18.932701 436.456976 66.773291 423.509293 129.756086 C 413.707093 177.377224 390.298853 233.922753 358.331976 289.29787 C 325.56044 346.136002 288.107257 396.171114 250.946676 428.576896 C 203.983895 469.687617 158.55728 484.537219 134.783287 470.784878 C 111.66765 457.544593 102.88956 413.873596 113.935323 355.572449 C 123.298619 306.341994 146.780009 245.846325 180.721957 186.886821 Z M 180.721957 186.886821 " transform="matrix(0.0534,0,0,0.0534,0.60726,2.285869)"/>
<path style="fill:none;stroke-width:24;stroke-linecap:butt;stroke-linejoin:miter;stroke:rgb(0%,84.705882%,100%);stroke-opacity:1;stroke-miterlimit:4;" d="M 180.795108 289.517322 C 147.072612 231.216175 124.103277 172.183521 114.520529 123.245669 C 102.962711 64.213015 111.155595 19.152154 134.344382 5.692416 C 158.630431 -8.352528 204.4228 7.886938 252.482842 50.606976 C 288.838764 82.866456 326.218797 131.438553 358.258825 186.74052 C 391.103511 243.505501 415.682163 301.00199 425.264911 349.354635 C 437.407935 410.581812 427.605735 457.32514 403.831742 471.077481 C 380.789256 484.464068 338.581273 470.345974 293.593563 431.576077 C 255.555173 398.877692 214.883357 348.330524 180.795108 289.517322 Z M 180.795108 289.517322 " transform="matrix(0.0534,0,0,0.0534,0.60726,2.285869)"/>
</g>
</svg>
