<?xml version="1.0" encoding="UTF-8"?>
<svg xmlns="http://www.w3.org/2000/svg" xmlns:xlink="http://www.w3.org/1999/xlink" width="30pt" height="30pt" viewBox="0 0 30 30" version="1.1">
<g id="surface1">
<path style=" stroke:none;fill-rule:nonzero;fill:rgb(0%,0%,0%);fill-opacity:1;" d="M 9.550781 0 C 9.367188 0.0117188 9.191406 0.0820312 9.054688 0.203125 C 8.640625 -0.0234375 8.128906 0.0234375 7.769531 0.328125 C 7.421875 0.210938 7.039062 0.320312 6.808594 0.601562 C 6.304688 0.496094 5.785156 0.652344 5.421875 1.019531 C 4.402344 0.898438 4.105469 1.601562 4.464844 2.265625 C 4.308594 2.433594 4.226562 2.660156 4.238281 2.890625 C 4.25 3.121094 4.351562 3.335938 4.523438 3.488281 C 4.382812 3.898438 4.519531 4.355469 4.859375 4.621094 C 4.78125 5.027344 4.96875 5.4375 5.332031 5.640625 C 5.355469 6.140625 5.660156 6.585938 6.117188 6.792969 C 6.195312 7.304688 6.621094 7.691406 7.136719 7.722656 C 7.273438 8.171875 7.683594 8.484375 8.15625 8.496094 C 6.328125 9.34375 5.234375 11.253906 5.433594 13.261719 L 5.238281 13.609375 C 4.136719 14.355469 3.417969 15.546875 3.257812 16.871094 C 3.101562 18.191406 3.527344 19.515625 4.421875 20.503906 C 4.578125 21.199219 4.789062 21.882812 5.054688 22.542969 C 5.289062 24.375 6.496094 25.933594 8.207031 26.625 C 9.125 27.359375 10.160156 27.9375 11.269531 28.335938 C 12.210938 29.390625 13.558594 29.992188 14.972656 30 L 15.03125 30 C 16.445312 29.992188 17.792969 29.390625 18.734375 28.335938 C 19.84375 27.9375 20.878906 27.359375 21.796875 26.625 C 23.507812 25.933594 24.714844 24.375 24.949219 22.542969 C 25.214844 21.882812 25.425781 21.199219 25.582031 20.503906 C 26.476562 19.515625 26.902344 18.191406 26.746094 16.871094 C 26.589844 15.546875 25.867188 14.355469 24.765625 13.609375 L 24.441406 13.261719 C 24.609375 11.292969 23.546875 9.425781 21.765625 8.570312 C 22.238281 8.554688 22.648438 8.242188 22.789062 7.792969 C 23.304688 7.761719 23.726562 7.375 23.808594 6.863281 C 24.261719 6.65625 24.566406 6.214844 24.59375 5.710938 C 24.953125 5.507812 25.140625 5.097656 25.0625 4.691406 C 25.402344 4.425781 25.539062 3.972656 25.398438 3.5625 C 25.570312 3.40625 25.675781 3.191406 25.6875 2.960938 C 25.695312 2.730469 25.617188 2.507812 25.457031 2.335938 C 25.816406 1.683594 25.457031 0.980469 24.5 1.09375 C 24.144531 0.679688 23.59375 0.496094 23.0625 0.601562 C 22.832031 0.324219 22.457031 0.214844 22.113281 0.328125 C 21.75 0.0234375 21.242188 -0.0234375 20.828125 0.203125 C 20.429688 -0.0625 19.902344 -0.0429688 19.523438 0.257812 C 19.140625 0.121094 18.714844 0.195312 18.402344 0.449219 C 17.898438 0.335938 17.382812 0.570312 17.136719 1.019531 L 16.738281 1.019531 C 15.847656 1.636719 15.210938 2.554688 14.941406 3.601562 C 14.683594 2.53125 14.046875 1.59375 13.144531 0.960938 L 12.746094 0.960938 C 12.480469 0.53125 11.96875 0.324219 11.480469 0.449219 C 11.164062 0.1875 10.726562 0.113281 10.339844 0.257812 C 10.09375 0.128906 9.828125 0.0429688 9.554688 0 Z M 9.550781 0 "/>
<path style=" stroke:none;fill-rule:nonzero;fill:rgb(45.882353%,66.27451%,15.686275%);fill-opacity:1;" d="M 7.421875 2.785156 C 9.417969 3.6875 11.246094 4.925781 12.828125 6.445312 C 12.378906 8.304688 9.941406 8.394531 9.054688 8.347656 C 9.222656 8.289062 9.363281 8.167969 9.441406 8.007812 C 8.914062 7.941406 8.390625 7.832031 7.882812 7.683594 C 8.050781 7.675781 8.207031 7.585938 8.300781 7.4375 C 7.800781 7.328125 7.324219 7.128906 6.890625 6.855469 C 7.085938 6.886719 7.289062 6.84375 7.453125 6.734375 C 6.964844 6.523438 6.511719 6.242188 6.105469 5.898438 C 6.300781 5.921875 6.5 5.890625 6.675781 5.804688 C 6.277344 5.5625 5.914062 5.269531 5.597656 4.929688 C 5.785156 4.980469 5.984375 4.964844 6.15625 4.878906 C 5.796875 4.589844 5.480469 4.246094 5.230469 3.859375 C 5.429688 3.964844 5.671875 3.964844 5.871094 3.859375 C 5.550781 3.554688 5.265625 3.210938 5.023438 2.839844 C 5.222656 2.882812 5.429688 2.882812 5.625 2.839844 C 5.519531 2.464844 5.335938 2.117188 5.085938 1.820312 C 5.542969 1.851562 6.003906 1.851562 6.464844 1.820312 L 6.128906 1.410156 C 6.636719 1.316406 7.164062 1.371094 7.648438 1.5625 C 7.832031 1.421875 7.648438 1.238281 7.414062 1.054688 C 7.847656 1.109375 8.277344 1.214844 8.6875 1.371094 C 8.882812 1.1875 8.546875 1.023438 8.382812 0.820312 C 8.863281 0.890625 9.320312 1.070312 9.71875 1.339844 C 9.953125 1.125 9.71875 0.953125 9.585938 0.769531 C 10.007812 0.929688 10.390625 1.175781 10.710938 1.492188 C 10.796875 1.425781 10.851562 1.328125 10.863281 1.222656 C 10.875 1.113281 10.839844 1.007812 10.769531 0.921875 C 11.121094 1.117188 11.425781 1.378906 11.667969 1.699219 C 11.828125 1.5625 11.882812 1.34375 11.8125 1.148438 C 12.179688 1.457031 12.519531 1.800781 12.832031 2.167969 C 12.925781 2.035156 12.984375 1.878906 12.996094 1.71875 C 13.953125 2.644531 15.308594 4.992188 13.339844 5.921875 C 11.574219 4.523438 9.5625 3.464844 7.414062 2.789062 Z M 22.519531 2.785156 C 20.519531 3.6875 18.691406 4.925781 17.109375 6.445312 C 17.582031 8.304688 20 8.394531 20.886719 8.347656 C 20.730469 8.277344 20.605469 8.15625 20.539062 8 C 21.066406 7.929688 21.589844 7.820312 22.097656 7.671875 C 21.929688 7.660156 21.78125 7.570312 21.691406 7.429688 C 22.191406 7.316406 22.667969 7.121094 23.097656 6.847656 C 22.898438 6.878906 22.695312 6.835938 22.527344 6.722656 C 23.015625 6.511719 23.46875 6.230469 23.875 5.886719 C 23.679688 5.914062 23.480469 5.882812 23.304688 5.796875 C 23.703125 5.554688 24.066406 5.257812 24.386719 4.917969 C 24.199219 4.972656 24 4.953125 23.824219 4.867188 C 24.183594 4.578125 24.5 4.234375 24.75 3.847656 C 24.550781 3.953125 24.308594 3.953125 24.109375 3.847656 C 24.429688 3.542969 24.714844 3.199219 24.957031 2.828125 C 24.757812 2.871094 24.550781 2.871094 24.355469 2.828125 C 24.464844 2.453125 24.648438 2.109375 24.894531 1.808594 C 24.4375 1.839844 23.976562 1.839844 23.515625 1.808594 L 23.863281 1.449219 C 23.351562 1.355469 22.828125 1.410156 22.34375 1.605469 C 22.160156 1.460938 22.34375 1.277344 22.578125 1.09375 C 22.140625 1.148438 21.714844 1.253906 21.304688 1.410156 C 21.070312 1.175781 21.394531 1.023438 21.566406 0.820312 C 21.089844 0.890625 20.632812 1.070312 20.230469 1.339844 C 19.996094 1.125 20.230469 0.953125 20.363281 0.769531 C 19.945312 0.929688 19.5625 1.175781 19.242188 1.492188 C 19.15625 1.429688 19.097656 1.332031 19.085938 1.222656 C 19.070312 1.113281 19.101562 1.007812 19.171875 0.921875 C 18.820312 1.113281 18.515625 1.378906 18.273438 1.695312 C 18.113281 1.5625 18.058594 1.339844 18.128906 1.144531 C 17.761719 1.457031 17.421875 1.796875 17.109375 2.164062 C 17.015625 2.035156 16.957031 1.878906 16.945312 1.714844 C 15.988281 2.644531 14.632812 4.992188 16.601562 5.917969 C 18.355469 4.527344 20.351562 3.464844 22.484375 2.789062 Z M 22.519531 2.785156 "/>
<path style=" stroke:none;fill-rule:nonzero;fill:rgb(73.72549%,6.666667%,25.882353%);fill-opacity:1;" d="M 18.417969 21.726562 C 18.351562 23.535156 16.835938 24.945312 15.03125 24.890625 C 13.21875 24.96875 11.6875 23.570312 11.601562 21.757812 C 11.667969 19.953125 13.183594 18.539062 14.988281 18.597656 C 16.800781 18.515625 18.335938 19.917969 18.417969 21.726562 Z M 13.03125 12.75 C 14.46875 13.890625 14.726562 15.980469 13.601562 17.433594 C 12.703125 19.042969 10.679688 19.636719 9.050781 18.769531 C 7.613281 17.628906 7.359375 15.542969 8.480469 14.085938 C 9.378906 12.476562 11.402344 11.882812 13.03125 12.75 Z M 16.847656 12.578125 C 15.40625 13.71875 15.152344 15.804688 16.273438 17.257812 C 17.175781 18.871094 19.199219 19.464844 20.824219 18.597656 C 22.265625 17.453125 22.519531 15.367188 21.394531 13.914062 C 20.496094 12.304688 18.472656 11.710938 16.847656 12.578125 Z M 5.972656 14.28125 C 7.503906 13.871094 6.484375 20.59375 5.25 20.042969 C 4.429688 19.25 4.03125 18.113281 4.171875 16.980469 C 4.3125 15.847656 4.980469 14.847656 5.972656 14.28125 Z M 23.597656 14.179688 C 22.070312 13.769531 23.089844 20.492188 24.324219 19.941406 C 25.144531 19.148438 25.542969 18.011719 25.402344 16.878906 C 25.257812 15.746094 24.589844 14.746094 23.597656 14.179688 Z M 18.417969 9.179688 C 21.050781 8.734375 23.242188 10.304688 23.152344 13.160156 C 23.070312 14.28125 17.480469 9.335938 18.417969 9.179688 Z M 11.132812 9.097656 C 8.5 8.652344 6.304688 10.222656 6.398438 13.078125 C 6.480469 14.167969 12.101562 9.261719 11.132812 9.097656 Z M 14.917969 8.4375 C 13.347656 8.4375 11.871094 9.601562 11.871094 10.304688 C 11.871094 11.007812 13.113281 12.027344 14.917969 12.046875 C 16.722656 12.070312 17.964844 11.355469 17.964844 10.476562 C 17.964844 9.601562 16.242188 8.4375 14.855469 8.4375 Z M 15.019531 25.867188 C 16.386719 25.808594 18.222656 26.308594 18.230469 26.96875 C 18.242188 27.632812 16.570312 29.070312 14.925781 29.011719 C 13.28125 28.949219 11.570312 27.625 11.589844 27.109375 C 11.589844 26.367188 13.628906 25.785156 15.019531 25.828125 Z M 9.960938 21.929688 C 10.980469 23.101562 11.367188 25.171875 10.5625 25.773438 C 9.753906 26.375 7.917969 26.050781 6.59375 24.144531 C 5.707031 22.53125 5.820312 20.910156 6.449219 20.398438 C 7.386719 19.828125 8.847656 20.601562 9.96875 21.898438 Z M 19.886719 21.554688 C 18.867188 22.789062 18.246094 25.042969 19.007812 25.769531 C 19.742188 26.332031 21.722656 26.257812 23.183594 24.226562 C 24.050781 22.960938 24.09375 21.300781 23.285156 19.996094 C 22.386719 19.300781 21.09375 20.1875 19.886719 21.554688 Z M 19.886719 21.554688 "/>
</g>
</svg>
