<?xml version="1.0" encoding="UTF-8"?>
<svg xmlns="http://www.w3.org/2000/svg" xmlns:xlink="http://www.w3.org/1999/xlink" width="30pt" height="30pt" viewBox="0 0 30 30" version="1.1">
<defs>
<clipPath id="clip1">
  <path d="M 6 6 L 30 6 L 30 30 L 6 30 Z M 6 6 "/>
</clipPath>
<clipPath id="clip2">
  <path d="M 6.132812 30.027344 C 6.132812 30.027344 28.390625 28.515625 28.390625 28.515625 C 28.390625 28.515625 30.105469 6.070312 30.105469 6.070312 C 30.105469 6.070312 23.324219 19.820312 23.324219 19.820312 C 23.324219 19.820312 6.132812 30.027344 6.132812 30.027344 Z M 6.132812 30.027344 "/>
</clipPath>
<linearGradient id="linear0" gradientUnits="userSpaceOnUse" x1="0" y1="0" x2="1" y2="0" gradientTransform="matrix(-6.352192,-11.215121,11.215121,-6.352192,26.449553,32.756207)">
<stop offset="0" style="stop-color:rgb(98.431373%,46.27451%,33.333333%);stop-opacity:1;"/>
<stop offset="0.41" style="stop-color:rgb(89.411765%,16.862745%,11.764706%);stop-opacity:1;"/>
<stop offset="0.99001" style="stop-color:rgb(60%,0%,0%);stop-opacity:1;"/>
<stop offset="1" style="stop-color:rgb(60%,0%,0%);stop-opacity:1;"/>
</linearGradient>
<clipPath id="clip3">
  <path d="M 21 15 L 29 15 L 29 29 L 21 29 Z M 21 15 "/>
</clipPath>
<clipPath id="clip4">
  <path d="M 21.304688 22.175781 C 21.304688 22.175781 28.429688 28.5 28.429688 28.5 C 28.429688 28.5 26.515625 15.296875 26.515625 15.296875 C 26.515625 15.296875 21.304688 22.175781 21.304688 22.175781 Z M 21.304688 22.175781 "/>
</clipPath>
<linearGradient id="linear1" gradientUnits="userSpaceOnUse" x1="0" y1="0" x2="1" y2="0" gradientTransform="matrix(-8.186254,-5.49347,5.49347,-8.186254,29.614059,23.336002)">
<stop offset="0" style="stop-color:rgb(52.941176%,6.666667%,0.392157%);stop-opacity:1;"/>
<stop offset="0.99001" style="stop-color:rgb(56.862745%,7.058824%,3.529412%);stop-opacity:1;"/>
<stop offset="1" style="stop-color:rgb(56.862745%,7.058824%,3.529412%);stop-opacity:1;"/>
</linearGradient>
<clipPath id="clip5">
  <path d="M 6 27 L 29 27 L 29 30 L 6 30 Z M 6 27 "/>
</clipPath>
<clipPath id="clip6">
  <path d="M 6.207031 29.996094 C 6.207031 29.996094 28.453125 28.5 28.453125 28.5 C 28.453125 28.5 14.4375 27.398438 14.4375 27.398438 C 14.4375 27.398438 6.207031 29.996094 6.207031 29.996094 Z M 6.207031 29.996094 "/>
</clipPath>
<linearGradient id="linear2" gradientUnits="userSpaceOnUse" x1="0" y1="0" x2="1" y2="0" gradientTransform="matrix(-8.186254,-5.49347,5.49347,-8.186254,23.064221,33.09635)">
<stop offset="0" style="stop-color:rgb(52.941176%,6.666667%,0.392157%);stop-opacity:1;"/>
<stop offset="0.99001" style="stop-color:rgb(56.862745%,7.058824%,3.529412%);stop-opacity:1;"/>
<stop offset="1" style="stop-color:rgb(56.862745%,7.058824%,3.529412%);stop-opacity:1;"/>
</linearGradient>
<clipPath id="clip7">
  <path d="M 2 18 L 10 18 L 10 30 L 2 30 Z M 2 18 "/>
</clipPath>
<clipPath id="clip8">
  <path d="M 2.023438 20.175781 C 2.023438 20.175781 6.226562 30 6.226562 30 C 6.226562 30 9.730469 18.53125 9.730469 18.53125 C 9.730469 18.53125 2.023438 20.175781 2.023438 20.175781 Z M 2.023438 20.175781 "/>
</clipPath>
<linearGradient id="linear3" gradientUnits="userSpaceOnUse" x1="0" y1="0" x2="1" y2="0" gradientTransform="matrix(1.269068,8.247665,-8.247665,1.269068,5.877261,19.359872)">
<stop offset="0" style="stop-color:rgb(100%,100%,100%);stop-opacity:1;"/>
<stop offset="0.23" style="stop-color:rgb(89.803922%,44.705882%,32.156863%);stop-opacity:1;"/>
<stop offset="0.46001" style="stop-color:rgb(87.058824%,23.137255%,12.54902%);stop-opacity:1;"/>
<stop offset="0.99001" style="stop-color:rgb(65.098039%,0%,1.176471%);stop-opacity:1;"/>
<stop offset="1" style="stop-color:rgb(65.098039%,0%,1.176471%);stop-opacity:1;"/>
</linearGradient>
<clipPath id="clip9">
  <path d="M 8 9 L 22 9 L 22 23 L 8 23 Z M 8 9 "/>
</clipPath>
<clipPath id="clip10">
  <path d="M 8.859375 18.238281 C 8.859375 18.238281 21.300781 22.214844 21.300781 22.214844 C 21.300781 22.214844 18.082031 9.597656 18.082031 9.597656 C 18.082031 9.597656 8.859375 18.238281 8.859375 18.238281 Z M 8.859375 18.238281 "/>
</clipPath>
<linearGradient id="linear4" gradientUnits="userSpaceOnUse" x1="0" y1="0" x2="1" y2="0" gradientTransform="matrix(0.4676,8.417414,-8.417414,0.4676,14.605604,11.658119)">
<stop offset="0" style="stop-color:rgb(100%,100%,100%);stop-opacity:1;"/>
<stop offset="0.23" style="stop-color:rgb(89.411765%,44.313725%,30.588235%);stop-opacity:1;"/>
<stop offset="0.56" style="stop-color:rgb(74.509804%,10.196078%,5.098039%);stop-opacity:1;"/>
<stop offset="0.99001" style="stop-color:rgb(65.882353%,5.098039%,0%);stop-opacity:1;"/>
<stop offset="1" style="stop-color:rgb(65.882353%,5.098039%,0%);stop-opacity:1;"/>
</linearGradient>
<clipPath id="clip11">
  <path d="M 18 2 L 30 2 L 30 11 L 18 11 Z M 18 2 "/>
</clipPath>
<clipPath id="clip12">
  <path d="M 18.234375 10.5 C 18.234375 10.5 29.375 9.773438 29.375 9.773438 C 29.375 9.773438 20.660156 2.65625 20.660156 2.65625 C 20.660156 2.65625 18.234375 10.5 18.234375 10.5 Z M 18.234375 10.5 "/>
</clipPath>
<linearGradient id="linear5" gradientUnits="userSpaceOnUse" x1="0" y1="0" x2="1" y2="0" gradientTransform="matrix(1.399766,6.032306,-6.032306,1.399766,22.351582,3.879343)">
<stop offset="0" style="stop-color:rgb(100%,100%,100%);stop-opacity:1;"/>
<stop offset="0.17999" style="stop-color:rgb(89.411765%,38.823529%,25.882353%);stop-opacity:1;"/>
<stop offset="0.39999" style="stop-color:rgb(78.431373%,14.117647%,6.27451%);stop-opacity:1;"/>
<stop offset="0.99001" style="stop-color:rgb(65.882353%,5.098039%,0%);stop-opacity:1;"/>
<stop offset="1" style="stop-color:rgb(65.882353%,5.098039%,0%);stop-opacity:1;"/>
</linearGradient>
<clipPath id="clip13">
  <path d="M 16 0 L 26 0 L 26 3 L 16 3 Z M 16 0 "/>
</clipPath>
<clipPath id="clip14">
  <path d="M 16.9375 0.078125 C 16.9375 0.078125 25.300781 0.117188 25.300781 0.117188 C 25.300781 0.117188 20.171875 2.949219 20.171875 2.949219 C 20.171875 2.949219 16.9375 0.078125 16.9375 0.078125 Z M 16.9375 0.078125 "/>
</clipPath>
<linearGradient id="linear6" gradientUnits="userSpaceOnUse" x1="0" y1="0" x2="1" y2="0" gradientTransform="matrix(6.032143,-3.016078,3.016078,6.032142,18.077085,1.754708)">
<stop offset="0" style="stop-color:rgb(100%,100%,100%);stop-opacity:1;"/>
<stop offset="0.53999" style="stop-color:rgb(78.431373%,12.156863%,6.666667%);stop-opacity:1;"/>
<stop offset="0.99001" style="stop-color:rgb(74.901961%,3.529412%,1.960784%);stop-opacity:1;"/>
<stop offset="1" style="stop-color:rgb(74.901961%,3.529412%,1.960784%);stop-opacity:1;"/>
</linearGradient>
<clipPath id="clip15">
  <path d="M 0 15 L 3 15 L 3 25 L 0 25 Z M 0 15 "/>
</clipPath>
<clipPath id="clip16">
  <path d="M 0.40625 15.445312 C 0.40625 15.445312 -0.00390625 24.023438 -0.00390625 24.023438 C -0.00390625 24.023438 2.144531 20.109375 2.144531 20.109375 C 2.144531 20.109375 0.40625 15.445312 0.40625 15.445312 Z M 0.40625 15.445312 "/>
</clipPath>
<linearGradient id="linear7" gradientUnits="userSpaceOnUse" x1="0" y1="0" x2="1" y2="0" gradientTransform="matrix(0.496479,4.97081,-4.97081,0.496479,0.589976,17.257202)">
<stop offset="0" style="stop-color:rgb(100%,100%,100%);stop-opacity:1;"/>
<stop offset="0.31" style="stop-color:rgb(87.058824%,25.098039%,14.117647%);stop-opacity:1;"/>
<stop offset="0.99001" style="stop-color:rgb(74.901961%,9.803922%,4.313725%);stop-opacity:1;"/>
<stop offset="1" style="stop-color:rgb(74.901961%,9.803922%,4.313725%);stop-opacity:1;"/>
</linearGradient>
<clipPath id="clip17">
  <path d="M 1 0 L 20 0 L 20 20 L 1 20 Z M 1 0 "/>
</clipPath>
<clipPath id="clip18">
  <path d="M 6.429688 6.390625 C 10.898438 1.957031 16.664062 -0.664062 18.878906 1.570312 C 21.089844 3.800781 18.746094 9.226562 14.273438 13.660156 C 9.800781 18.09375 4.105469 20.855469 1.894531 18.625 C -0.316406 16.394531 1.957031 10.824219 6.429688 6.390625 Z M 6.429688 6.390625 "/>
</clipPath>
<linearGradient id="linear8" gradientUnits="userSpaceOnUse" x1="0" y1="0" x2="1" y2="0" gradientTransform="matrix(23.338099,-23.998085,23.998085,23.338099,-2.823848,23.57204)">
<stop offset="0" style="stop-color:rgb(74.117647%,0%,7.058824%);stop-opacity:1;"/>
<stop offset="0.07001" style="stop-color:rgb(100%,100%,100%);stop-opacity:1;"/>
<stop offset="0.27" style="stop-color:rgb(78.431373%,18.431373%,10.980392%);stop-opacity:1;"/>
<stop offset="0.33" style="stop-color:rgb(50.980392%,4.705882%,0.392157%);stop-opacity:1;"/>
<stop offset="0.46001" style="stop-color:rgb(63.921569%,8.627451%,0.392157%);stop-opacity:1;"/>
<stop offset="0.72" style="stop-color:rgb(70.196078%,7.45098%,0.392157%);stop-opacity:1;"/>
<stop offset="0.99001" style="stop-color:rgb(90.980392%,14.901961%,3.529412%);stop-opacity:1;"/>
<stop offset="1" style="stop-color:rgb(90.980392%,14.901961%,3.529412%);stop-opacity:1;"/>
</linearGradient>
<clipPath id="clip19">
  <path d="M 6 18 L 22 18 L 22 30 L 6 30 Z M 6 18 "/>
</clipPath>
<clipPath id="clip20">
  <path d="M 6.226562 29.996094 C 6.226562 29.996094 9.703125 18.488281 9.703125 18.488281 C 9.703125 18.488281 21.238281 22.195312 21.238281 22.195312 C 17.066406 26.105469 12.425781 29.414062 6.226562 29.996094 Z M 6.226562 29.996094 "/>
</clipPath>
<linearGradient id="linear9" gradientUnits="userSpaceOnUse" x1="0" y1="0" x2="1" y2="0" gradientTransform="matrix(-7.029059,-1.734829,1.734829,-7.029059,15.053045,25.991925)">
<stop offset="0" style="stop-color:rgb(54.901961%,4.705882%,0.392157%);stop-opacity:1;"/>
<stop offset="0.53999" style="stop-color:rgb(60%,4.705882%,0%);stop-opacity:1;"/>
<stop offset="0.99001" style="stop-color:rgb(65.882353%,5.098039%,5.490196%);stop-opacity:1;"/>
<stop offset="1" style="stop-color:rgb(65.882353%,5.098039%,5.490196%);stop-opacity:1;"/>
</linearGradient>
<clipPath id="clip21">
  <path d="M 18 9 L 30 9 L 30 23 L 18 23 Z M 18 9 "/>
</clipPath>
<clipPath id="clip22">
  <path d="M 18.316406 10.46875 C 18.316406 10.46875 21.28125 22.203125 21.28125 22.203125 C 24.765625 18.539062 27.890625 14.597656 29.421875 9.726562 C 29.421875 9.726562 18.316406 10.46875 18.316406 10.46875 Z M 18.316406 10.46875 "/>
</clipPath>
<linearGradient id="linear10" gradientUnits="userSpaceOnUse" x1="0" y1="0" x2="1" y2="0" gradientTransform="matrix(-6.244875,-5.597108,5.597108,-6.244875,27.126575,17.554826)">
<stop offset="0" style="stop-color:rgb(49.411765%,6.666667%,4.313725%);stop-opacity:1;"/>
<stop offset="0.99001" style="stop-color:rgb(61.960784%,4.705882%,0%);stop-opacity:1;"/>
<stop offset="1" style="stop-color:rgb(61.960784%,4.705882%,0%);stop-opacity:1;"/>
</linearGradient>
<clipPath id="clip23">
  <path d="M 20 0 L 30 0 L 30 10 L 20 10 Z M 20 0 "/>
</clipPath>
<clipPath id="clip24">
  <path d="M 29.394531 9.785156 C 30.578125 6.207031 30.851562 1.078125 25.261719 0.125 C 25.261719 0.125 20.675781 2.65625 20.675781 2.65625 C 20.675781 2.65625 29.394531 9.785156 29.394531 9.785156 Z M 29.394531 9.785156 "/>
</clipPath>
<linearGradient id="linear11" gradientUnits="userSpaceOnUse" x1="0" y1="0" x2="1" y2="0" gradientTransform="matrix(-3.11076,-3.325625,3.325625,-3.11076,29.420835,7.285376)">
<stop offset="0" style="stop-color:rgb(47.45098%,7.45098%,5.098039%);stop-opacity:1;"/>
<stop offset="0.99001" style="stop-color:rgb(61.960784%,7.058824%,4.313725%);stop-opacity:1;"/>
<stop offset="1" style="stop-color:rgb(61.960784%,7.058824%,4.313725%);stop-opacity:1;"/>
</linearGradient>
<clipPath id="clip25">
  <path d="M 18 9 L 30 9 L 30 16 L 18 16 Z M 18 9 "/>
</clipPath>
<clipPath id="clip26">
  <path d="M 18.335938 10.488281 C 21.011719 12.132812 26.410156 15.4375 26.519531 15.5 C 26.6875 15.59375 28.84375 11.863281 29.332031 9.753906 C 29.332031 9.753906 18.335938 10.488281 18.335938 10.488281 Z M 18.335938 10.488281 "/>
</clipPath>
<radialGradient id="radial0" gradientUnits="userSpaceOnUse" cx="351.50977" cy="-415.8999" fx="351.50977" fy="-415.8999" r="50.36" gradientTransform="matrix(0.151966,0,0,0.151966,-31.563661,75.268041)">
<stop offset="0" style="stop-color:rgb(65.882353%,5.098039%,0%);stop-opacity:1;"/>
<stop offset="0.99001" style="stop-color:rgb(49.411765%,5.490196%,3.137255%);stop-opacity:1;"/>
<stop offset="1" style="stop-color:rgb(49.411765%,5.490196%,3.137255%);stop-opacity:1;"/>
</radialGradient>
<clipPath id="clip27">
  <path d="M 9 18 L 22 18 L 22 28 L 9 28 Z M 9 18 "/>
</clipPath>
<clipPath id="clip28">
  <path d="M 9.695312 18.488281 C 9.695312 18.488281 14.339844 27.449219 14.339844 27.449219 C 17.085938 25.960938 19.238281 24.144531 21.207031 22.203125 C 21.207031 22.203125 9.695312 18.488281 9.695312 18.488281 Z M 9.695312 18.488281 "/>
</clipPath>
<radialGradient id="radial1" gradientUnits="userSpaceOnUse" cx="281.77002" cy="-349.54004" fx="281.77002" fy="-349.54004" r="66.9469" gradientTransform="matrix(0.151966,0,0,0.151966,-31.563661,75.268041)">
<stop offset="0" style="stop-color:rgb(63.921569%,4.705882%,0%);stop-opacity:1;"/>
<stop offset="0.99001" style="stop-color:rgb(50.196078%,5.490196%,3.137255%);stop-opacity:1;"/>
<stop offset="1" style="stop-color:rgb(50.196078%,5.490196%,3.137255%);stop-opacity:1;"/>
</radialGradient>
<clipPath id="clip29">
  <path d="M 1 20 L 7 20 L 7 30 L 1 30 Z M 1 20 "/>
</clipPath>
<clipPath id="clip30">
  <path d="M 2.027344 20.242188 C 2.027344 20.242188 1.367188 28.078125 1.367188 28.078125 C 2.609375 29.773438 4.316406 29.917969 6.109375 29.789062 C 4.8125 26.5625 2.222656 20.109375 2.027344 20.242188 Z M 2.027344 20.242188 "/>
</clipPath>
<linearGradient id="linear12" gradientUnits="userSpaceOnUse" x1="0" y1="0" x2="1" y2="0" gradientTransform="matrix(-2.535114,-8.60083,8.60083,-2.535114,4.049807,29.9895)">
<stop offset="0" style="stop-color:rgb(54.509804%,12.941176%,7.843137%);stop-opacity:1;"/>
<stop offset="0.42999" style="stop-color:rgb(61.960784%,6.27451%,3.921569%);stop-opacity:1;"/>
<stop offset="0.99001" style="stop-color:rgb(70.196078%,6.27451%,4.705882%);stop-opacity:1;"/>
<stop offset="1" style="stop-color:rgb(70.196078%,6.27451%,4.705882%);stop-opacity:1;"/>
</linearGradient>
<clipPath id="clip31">
  <path d="M 20 0 L 30 0 L 30 4 L 20 4 Z M 20 0 "/>
</clipPath>
<clipPath id="clip32">
  <path d="M 20.648438 2.675781 C 20.648438 2.675781 29.875 3.972656 29.875 3.972656 C 29.382812 1.886719 27.871094 0.539062 25.292969 0.117188 C 25.292969 0.117188 20.648438 2.675781 20.648438 2.675781 Z M 20.648438 2.675781 "/>
</clipPath>
<linearGradient id="linear13" gradientUnits="userSpaceOnUse" x1="0" y1="0" x2="1" y2="0" gradientTransform="matrix(5.683537,2.508812,-2.508812,5.683537,23.497191,1.489657)">
<stop offset="0" style="stop-color:rgb(70.196078%,6.27451%,0%);stop-opacity:1;"/>
<stop offset="0.44" style="stop-color:rgb(56.862745%,5.882353%,3.137255%);stop-opacity:1;"/>
<stop offset="0.99001" style="stop-color:rgb(47.45098%,10.980392%,7.058824%);stop-opacity:1;"/>
<stop offset="1" style="stop-color:rgb(47.45098%,10.980392%,7.058824%);stop-opacity:1;"/>
</linearGradient>
</defs>
<g id="surface1">
<g clip-path="url(#clip1)" clip-rule="nonzero">
<g clip-path="url(#clip2)" clip-rule="evenodd">
<path style=" stroke:none;fill-rule:evenodd;fill:url(#linear0);" d="M 6.132812 30.027344 C 6.132812 30.027344 28.390625 28.515625 28.390625 28.515625 C 28.390625 28.515625 30.105469 6.070312 30.105469 6.070312 C 30.105469 6.070312 23.324219 19.820312 23.324219 19.820312 C 23.324219 19.820312 6.132812 30.027344 6.132812 30.027344 Z M 6.132812 30.027344 "/>
</g>
</g>
<g clip-path="url(#clip3)" clip-rule="nonzero">
<g clip-path="url(#clip4)" clip-rule="evenodd">
<path style=" stroke:none;fill-rule:evenodd;fill:url(#linear1);" d="M 21.304688 22.175781 C 21.304688 22.175781 28.429688 28.5 28.429688 28.5 C 28.429688 28.5 26.515625 15.296875 26.515625 15.296875 C 26.515625 15.296875 21.304688 22.175781 21.304688 22.175781 Z M 21.304688 22.175781 "/>
</g>
</g>
<g clip-path="url(#clip5)" clip-rule="nonzero">
<g clip-path="url(#clip6)" clip-rule="evenodd">
<path style=" stroke:none;fill-rule:evenodd;fill:url(#linear2);" d="M 6.207031 29.996094 C 6.207031 29.996094 28.453125 28.5 28.453125 28.5 C 28.453125 28.5 14.4375 27.398438 14.4375 27.398438 C 14.4375 27.398438 6.207031 29.996094 6.207031 29.996094 Z M 6.207031 29.996094 "/>
</g>
</g>
<g clip-path="url(#clip7)" clip-rule="nonzero">
<g clip-path="url(#clip8)" clip-rule="evenodd">
<path style=" stroke:none;fill-rule:evenodd;fill:url(#linear3);" d="M 2.023438 20.175781 C 2.023438 20.175781 6.226562 30 6.226562 30 C 6.226562 30 9.730469 18.53125 9.730469 18.53125 C 9.730469 18.53125 2.023438 20.175781 2.023438 20.175781 Z M 2.023438 20.175781 "/>
</g>
</g>
<g clip-path="url(#clip9)" clip-rule="nonzero">
<g clip-path="url(#clip10)" clip-rule="evenodd">
<path style=" stroke:none;fill-rule:evenodd;fill:url(#linear4);" d="M 8.859375 18.238281 C 8.859375 18.238281 21.300781 22.214844 21.300781 22.214844 C 21.300781 22.214844 18.082031 9.597656 18.082031 9.597656 C 18.082031 9.597656 8.859375 18.238281 8.859375 18.238281 Z M 8.859375 18.238281 "/>
</g>
</g>
<g clip-path="url(#clip11)" clip-rule="nonzero">
<g clip-path="url(#clip12)" clip-rule="evenodd">
<path style=" stroke:none;fill-rule:evenodd;fill:url(#linear5);" d="M 18.234375 10.5 C 18.234375 10.5 29.375 9.773438 29.375 9.773438 C 29.375 9.773438 20.660156 2.65625 20.660156 2.65625 C 20.660156 2.65625 18.234375 10.5 18.234375 10.5 Z M 18.234375 10.5 "/>
</g>
</g>
<g clip-path="url(#clip13)" clip-rule="nonzero">
<g clip-path="url(#clip14)" clip-rule="evenodd">
<path style=" stroke:none;fill-rule:evenodd;fill:url(#linear6);" d="M 16.9375 0.078125 C 16.9375 0.078125 25.300781 0.117188 25.300781 0.117188 C 25.300781 0.117188 20.171875 2.949219 20.171875 2.949219 C 20.171875 2.949219 16.9375 0.078125 16.9375 0.078125 Z M 16.9375 0.078125 "/>
</g>
</g>
<g clip-path="url(#clip15)" clip-rule="nonzero">
<g clip-path="url(#clip16)" clip-rule="evenodd">
<path style=" stroke:none;fill-rule:evenodd;fill:url(#linear7);" d="M 0.40625 15.445312 C 0.40625 15.445312 -0.00390625 24.023438 -0.00390625 24.023438 C -0.00390625 24.023438 2.144531 20.109375 2.144531 20.109375 C 2.144531 20.109375 0.40625 15.445312 0.40625 15.445312 Z M 0.40625 15.445312 "/>
</g>
</g>
<path style=" stroke:none;fill-rule:evenodd;fill:rgb(100%,100%,100%);fill-opacity:1;" d="M 0.292969 15.296875 C 0.292969 15.296875 2.039062 20.253906 2.039062 20.253906 C 2.039062 20.253906 9.632812 18.550781 9.632812 18.550781 C 9.632812 18.550781 18.300781 10.492188 18.300781 10.492188 C 18.300781 10.492188 20.75 2.722656 20.75 2.722656 C 20.75 2.722656 16.898438 0 16.898438 0 C 16.898438 0 10.347656 2.453125 10.347656 2.453125 C 8.285156 4.371094 4.277344 8.167969 4.136719 8.242188 C 3.992188 8.3125 1.492188 13.039062 0.292969 15.296875 Z M 0.292969 15.296875 "/>
<g clip-path="url(#clip17)" clip-rule="nonzero">
<g clip-path="url(#clip18)" clip-rule="evenodd">
<path style=" stroke:none;fill-rule:evenodd;fill:url(#linear8);" d="M 6.429688 6.390625 C 10.898438 1.957031 16.664062 -0.664062 18.878906 1.570312 C 21.089844 3.800781 18.746094 9.226562 14.273438 13.660156 C 9.800781 18.09375 4.105469 20.855469 1.894531 18.625 C -0.316406 16.394531 1.957031 10.824219 6.429688 6.390625 Z M 6.429688 6.390625 "/>
</g>
</g>
<g clip-path="url(#clip19)" clip-rule="nonzero">
<g clip-path="url(#clip20)" clip-rule="evenodd">
<path style=" stroke:none;fill-rule:evenodd;fill:url(#linear9);" d="M 6.226562 29.996094 C 6.226562 29.996094 9.703125 18.488281 9.703125 18.488281 C 9.703125 18.488281 21.238281 22.195312 21.238281 22.195312 C 17.066406 26.105469 12.425781 29.414062 6.226562 29.996094 Z M 6.226562 29.996094 "/>
</g>
</g>
<g clip-path="url(#clip21)" clip-rule="nonzero">
<g clip-path="url(#clip22)" clip-rule="evenodd">
<path style=" stroke:none;fill-rule:evenodd;fill:url(#linear10);" d="M 18.316406 10.46875 C 18.316406 10.46875 21.28125 22.203125 21.28125 22.203125 C 24.765625 18.539062 27.890625 14.597656 29.421875 9.726562 C 29.421875 9.726562 18.316406 10.46875 18.316406 10.46875 Z M 18.316406 10.46875 "/>
</g>
</g>
<g clip-path="url(#clip23)" clip-rule="nonzero">
<g clip-path="url(#clip24)" clip-rule="evenodd">
<path style=" stroke:none;fill-rule:evenodd;fill:url(#linear11);" d="M 29.394531 9.785156 C 30.578125 6.207031 30.851562 1.078125 25.261719 0.125 C 25.261719 0.125 20.675781 2.65625 20.675781 2.65625 C 20.675781 2.65625 29.394531 9.785156 29.394531 9.785156 Z M 29.394531 9.785156 "/>
</g>
</g>
<path style=" stroke:none;fill-rule:evenodd;fill:rgb(61.960784%,7.058824%,3.529412%);fill-opacity:1;" d="M -0.00390625 23.972656 C 0.160156 29.878906 4.421875 29.964844 6.234375 30.015625 C 6.234375 30.015625 2.042969 20.230469 2.042969 20.230469 C 2.042969 20.230469 -0.00390625 23.972656 -0.00390625 23.972656 Z M -0.00390625 23.972656 "/>
<g clip-path="url(#clip25)" clip-rule="nonzero">
<g clip-path="url(#clip26)" clip-rule="evenodd">
<path style=" stroke:none;fill-rule:evenodd;fill:url(#radial0);" d="M 18.335938 10.488281 C 21.011719 12.132812 26.410156 15.4375 26.519531 15.5 C 26.6875 15.59375 28.84375 11.863281 29.332031 9.753906 C 29.332031 9.753906 18.335938 10.488281 18.335938 10.488281 Z M 18.335938 10.488281 "/>
</g>
</g>
<g clip-path="url(#clip27)" clip-rule="nonzero">
<g clip-path="url(#clip28)" clip-rule="evenodd">
<path style=" stroke:none;fill-rule:evenodd;fill:url(#radial1);" d="M 9.695312 18.488281 C 9.695312 18.488281 14.339844 27.449219 14.339844 27.449219 C 17.085938 25.960938 19.238281 24.144531 21.207031 22.203125 C 21.207031 22.203125 9.695312 18.488281 9.695312 18.488281 Z M 9.695312 18.488281 "/>
</g>
</g>
<g clip-path="url(#clip29)" clip-rule="nonzero">
<g clip-path="url(#clip30)" clip-rule="evenodd">
<path style=" stroke:none;fill-rule:evenodd;fill:url(#linear12);" d="M 2.027344 20.242188 C 2.027344 20.242188 1.367188 28.078125 1.367188 28.078125 C 2.609375 29.773438 4.316406 29.917969 6.109375 29.789062 C 4.8125 26.5625 2.222656 20.109375 2.027344 20.242188 Z M 2.027344 20.242188 "/>
</g>
</g>
<g clip-path="url(#clip31)" clip-rule="nonzero">
<g clip-path="url(#clip32)" clip-rule="evenodd">
<path style=" stroke:none;fill-rule:evenodd;fill:url(#linear13);" d="M 20.648438 2.675781 C 20.648438 2.675781 29.875 3.972656 29.875 3.972656 C 29.382812 1.886719 27.871094 0.539062 25.292969 0.117188 C 25.292969 0.117188 20.648438 2.675781 20.648438 2.675781 Z M 20.648438 2.675781 "/>
</g>
</g>
</g>
</svg>
