<?xml version="1.0" encoding="UTF-8"?>
<svg xmlns="http://www.w3.org/2000/svg" xmlns:xlink="http://www.w3.org/1999/xlink" width="30pt" height="30pt" viewBox="0 0 30 30" version="1.1">
<g id="surface1">
<path style=" stroke:none;fill-rule:nonzero;fill:rgb(0%,47.843137%,80%);fill-opacity:1;" d="M 0 24 L 0 48 L 48 48 L 48 0 L 0 0 Z M 38.683594 22.085938 C 39.902344 22.390625 40.832031 22.933594 41.683594 23.816406 C 42.128906 24.289062 42.78125 25.152344 42.835938 25.355469 C 42.851562 25.414062 40.761719 26.820312 39.496094 27.605469 C 39.453125 27.632812 39.269531 27.4375 39.0625 27.132812 C 38.445312 26.230469 37.796875 25.84375 36.808594 25.773438 C 35.351562 25.675781 34.40625 26.4375 34.421875 27.710938 C 34.421875 28.082031 34.476562 28.304688 34.628906 28.609375 C 34.949219 29.273438 35.542969 29.667969 37.410156 30.476562 C 40.847656 31.957031 42.316406 32.929688 43.230469 34.316406 C 44.25 35.863281 44.480469 38.332031 43.785156 40.167969 C 43.023438 42.164062 41.132812 43.523438 38.476562 43.972656 C 37.652344 44.117188 35.703125 44.09375 34.820312 43.933594 C 32.890625 43.589844 31.0625 42.640625 29.933594 41.390625 C 29.492188 40.902344 28.632812 39.628906 28.683594 39.535156 C 28.707031 39.507812 28.90625 39.382812 29.128906 39.253906 L 30.910156 38.226562 L 32.289062 37.425781 L 32.578125 37.855469 C 32.984375 38.472656 33.867188 39.316406 34.402344 39.597656 C 35.933594 40.40625 38.035156 40.292969 39.070312 39.363281 C 39.515625 38.960938 39.695312 38.539062 39.695312 37.921875 C 39.695312 37.367188 39.628906 37.121094 39.339844 36.703125 C 38.964844 36.171875 38.203125 35.722656 36.039062 34.785156 C 33.5625 33.71875 32.496094 33.054688 31.519531 32.003906 C 30.957031 31.394531 30.421875 30.417969 30.203125 29.601562 C 30.019531 28.925781 29.972656 27.226562 30.117188 26.539062 C 30.628906 24.140625 32.433594 22.480469 35.039062 21.984375 C 35.886719 21.824219 37.851562 21.886719 38.683594 22.089844 Z M 27.414062 24.089844 L 27.429688 26.054688 L 21.179688 26.054688 L 21.179688 43.808594 L 16.761719 43.808594 L 16.761719 26.054688 L 10.515625 26.054688 L 10.515625 24.128906 L 10.566406 22.148438 C 10.589844 22.117188 14.390625 22.101562 19.003906 22.109375 L 27.390625 22.132812 Z M 27.414062 24.089844 "/>
</g>
</svg>
