<svg width="40" height="40" viewBox="0 0 512 512" fill="none" xmlns="http://www.w3.org/2000/svg">
<path d="M493.526 0H18.474C8.288 0 0 8.288 0 18.474V377.402C0 387.588 8.288 395.876 18.474 395.876H168.907V453.938H144.252L129.737 512H382.265L367.749 453.938H343.093V395.876H493.526C503.712 395.876 512 387.588 512 377.402V18.474C512 8.288 503.712 0 493.526 0ZM355.385 469.773L361.984 496.165H150.016L156.614 469.773H355.385ZM184.742 453.938V395.876H327.258V453.938H184.742ZM496.165 377.402C496.165 378.832 494.956 380.041 493.526 380.041H18.474C17.044 380.041 15.835 378.832 15.835 377.402V285.031H496.165V377.402V377.402ZM248.082 79.175V269.196H232.247V169.922L192.66 77.551L153.072 169.922V269.196H52.784V52.784H459.217V269.196H358.928V79.175H248.082ZM263.918 226.969V190.021H308.784V174.186H263.918V137.238H292.949V121.403H263.918V95.01H343.093V269.196H263.918V242.804H292.949V226.969H263.918V226.969ZM172.997 163.629L192.66 117.749L212.323 163.629H172.997ZM184.742 179.464V269.196H168.907V179.464H184.742V179.464ZM200.577 179.464H216.412V269.196H200.577V179.464ZM496.165 269.196H475.052V36.948H36.948V269.195H15.835V18.474C15.835 17.044 17.044 15.835 18.474 15.835H493.526C494.956 15.835 496.165 17.044 496.165 18.474V269.196Z" fill="white"/>
</svg>
