<?xml version="1.0" encoding="UTF-8"?>
<svg xmlns="http://www.w3.org/2000/svg" xmlns:xlink="http://www.w3.org/1999/xlink" width="15pt" height="15pt" viewBox="0 0 15 15" version="1.1">
<g id="surface1">
<path style=" stroke:none;fill-rule:nonzero;fill:rgb(100%,35.294118%,35.294118%);fill-opacity:1;" d="M 14.214844 3.921875 C 14.054688 3.300781 13.570312 2.808594 12.957031 2.644531 C 11.851562 2.34375 8.539062 2.34375 7.402344 2.34375 C 6.265625 2.34375 2.953125 2.34375 1.84375 2.644531 C 1.230469 2.808594 0.75 3.300781 0.585938 3.921875 C 0.289062 5.050781 0.289062 7.402344 0.289062 7.402344 C 0.289062 7.402344 0.289062 9.753906 0.585938 10.878906 C 0.75 11.503906 1.230469 11.992188 1.84375 12.15625 C 2.953125 12.460938 5.722656 12.460938 7.402344 12.460938 C 9.078125 12.460938 11.851562 12.460938 12.957031 12.15625 C 13.570312 11.992188 14.054688 11.503906 14.214844 10.878906 C 14.511719 9.753906 14.511719 7.402344 14.511719 7.402344 C 14.511719 7.402344 14.511719 5.050781 14.214844 3.921875 Z M 14.214844 3.921875 "/>
<path style=" stroke:none;fill-rule:nonzero;fill:rgb(0%,0%,0%);fill-opacity:1;" d="M 7.472656 2.632812 L 7.453125 2.632812 C 7.292969 2.632812 7.164062 2.5 7.164062 2.34375 C 7.164062 2.34375 7.164062 2.34375 7.164062 2.339844 C 7.164062 2.183594 7.292969 2.050781 7.453125 2.050781 L 7.472656 2.050781 C 7.632812 2.050781 7.761719 2.183594 7.761719 2.34375 C 7.761719 2.5 7.632812 2.632812 7.472656 2.632812 Z M 7.472656 2.632812 "/>
<path style=" stroke:none;fill-rule:nonzero;fill:rgb(0%,0%,0%);fill-opacity:1;" d="M 7.402344 12.75 C 7.21875 12.75 2.902344 12.746094 1.765625 12.4375 C 1.054688 12.246094 0.496094 11.675781 0.304688 10.953125 C 0.00390625 9.804688 0 7.496094 0 7.402344 C 0 7.304688 0.00390625 4.996094 0.304688 3.847656 C 0.496094 3.125 1.054688 2.558594 1.765625 2.363281 C 2.515625 2.160156 4.625 2.085938 6.257812 2.0625 C 6.417969 2.058594 6.550781 2.1875 6.554688 2.347656 C 6.554688 2.507812 6.429688 2.636719 6.269531 2.640625 C 4.003906 2.675781 2.460938 2.777344 1.917969 2.925781 C 1.40625 3.0625 1.003906 3.472656 0.867188 3.996094 C 0.582031 5.074219 0.578125 7.378906 0.578125 7.402344 C 0.578125 7.425781 0.582031 9.726562 0.867188 10.808594 C 1.003906 11.328125 1.40625 11.738281 1.917969 11.878906 C 2.980469 12.167969 7.355469 12.171875 7.402344 12.171875 C 7.445312 12.171875 11.824219 12.167969 12.882812 11.878906 C 13.394531 11.738281 13.796875 11.328125 13.9375 10.808594 C 14.222656 9.726562 14.222656 7.425781 14.222656 7.402344 C 14.222656 7.378906 14.222656 5.074219 13.9375 3.996094 C 13.796875 3.472656 13.394531 3.0625 12.882812 2.925781 C 12.355469 2.78125 10.855469 2.679688 8.660156 2.640625 C 8.5 2.640625 8.371094 2.507812 8.375 2.347656 C 8.378906 2.191406 8.507812 2.0625 8.667969 2.066406 C 10.253906 2.089844 12.300781 2.164062 13.035156 2.363281 C 13.746094 2.558594 14.304688 3.125 14.496094 3.847656 C 14.800781 4.996094 14.800781 7.304688 14.800781 7.402344 C 14.800781 7.496094 14.800781 9.804688 14.496094 10.953125 C 14.304688 11.675781 13.746094 12.246094 13.035156 12.4375 C 11.902344 12.746094 7.585938 12.75 7.402344 12.75 Z M 7.402344 12.75 "/>
<path style=" stroke:none;fill-rule:nonzero;fill:rgb(100%,100%,100%);fill-opacity:1;" d="M 6.015625 5.363281 L 9.601562 7.445312 L 6.015625 9.527344 Z M 6.015625 5.363281 "/>
<path style=" stroke:none;fill-rule:nonzero;fill:rgb(0%,0%,0%);fill-opacity:1;" d="M 1.675781 9.570312 C 1.515625 9.570312 1.386719 9.441406 1.386719 9.28125 L 1.386719 6.925781 C 1.386719 6.765625 1.515625 6.636719 1.675781 6.636719 C 1.835938 6.636719 1.964844 6.765625 1.964844 6.925781 L 1.964844 9.28125 C 1.964844 9.441406 1.835938 9.570312 1.675781 9.570312 Z M 1.675781 9.570312 "/>
<path style=" stroke:none;fill-rule:nonzero;fill:rgb(0%,0%,0%);fill-opacity:1;" d="M 1.675781 5.902344 C 1.515625 5.902344 1.386719 5.773438 1.386719 5.613281 L 1.386719 5.609375 C 1.386719 5.449219 1.515625 5.320312 1.675781 5.320312 C 1.835938 5.320312 1.964844 5.449219 1.964844 5.609375 L 1.964844 5.613281 C 1.964844 5.773438 1.835938 5.902344 1.675781 5.902344 Z M 1.675781 5.902344 "/>
<path style=" stroke:none;fill-rule:nonzero;fill:rgb(0%,0%,0%);fill-opacity:1;" d="M 6.015625 9.816406 C 5.964844 9.816406 5.917969 9.804688 5.871094 9.777344 C 5.78125 9.726562 5.726562 9.632812 5.726562 9.527344 L 5.726562 5.363281 C 5.726562 5.261719 5.78125 5.164062 5.871094 5.113281 C 5.960938 5.0625 6.070312 5.0625 6.160156 5.113281 L 9.746094 7.195312 C 9.835938 7.246094 9.890625 7.339844 9.890625 7.445312 C 9.890625 7.550781 9.835938 7.644531 9.746094 7.695312 L 6.160156 9.777344 C 6.117188 9.804688 6.066406 9.816406 6.015625 9.816406 Z M 6.304688 5.863281 L 6.304688 9.023438 L 9.023438 7.445312 Z M 6.304688 5.863281 "/>
</g>
</svg>
